<?xml version="1.0" standalone="no"?>
<!DOCTYPE svg PUBLIC "-//W3C//DTD SVG 20010904//EN"
 "http://www.w3.org/TR/2001/REC-SVG-20010904/DTD/svg10.dtd">
<svg version="1.0" xmlns="http://www.w3.org/2000/svg"
 width="1000.000000pt" height="1000.000000pt" viewBox="0 0 1000.000000 1000.000000"
 preserveAspectRatio="xMidYMid meet">
<metadata>
Created by potrace 1.11, written by Peter Selinger 2001-2013
</metadata>
<g transform="translate(0.000000,1000.000000) scale(0.100000,-0.100000)"
fill="#000000" stroke="none">
<path d="M4659 9226 c-2 -2 -40 -7 -84 -11 -44 -4 -89 -9 -100 -11 -11 -3 -71
-5 -132 -5 -98 -1 -113 -3 -115 -17 0 -10 -2 -22 -2 -29 -2 -18 -7 -20 -68
-26 -66 -6 -127 -36 -234 -118 -70 -52 -156 -99 -184 -99 -35 0 -130 -118
-226 -280 -106 -179 -148 -232 -239 -301 -76 -57 -103 -120 -120 -274 -10
-101 -40 -173 -85 -207 -26 -19 -29 -26 -24 -59 5 -31 3 -39 -16 -49 l-22 -12
21 -22 c29 -31 27 -42 -22 -105 -221 -282 -349 -602 -358 -894 -1 -31 -6 -58
-11 -58 -4 -1 -12 -3 -18 -4 -5 -1 -14 -3 -19 -4 -16 -2 -19 -39 -5 -59 23
-33 6 -76 -56 -143 -63 -67 -69 -113 -24 -182 13 -20 27 -50 30 -66 3 -16 19
-38 35 -50 35 -26 37 -43 7 -56 -19 -8 -27 -28 -44 -99 -26 -106 -23 -166 12
-250 99 -237 113 -300 77 -328 -14 -10 -18 -28 -18 -84 0 -63 2 -70 18 -66 12
3 17 -2 17 -16 0 -11 -8 -22 -17 -24 -17 -5 -68 -91 -67 -113 1 -34 28 -95 50
-116 19 -18 24 -31 20 -51 -3 -16 0 -31 9 -38 8 -7 12 -24 9 -45 -3 -27 2 -40
22 -60 23 -23 25 -30 19 -77 -4 -28 -8 -59 -10 -69 -2 -10 5 -25 15 -32 13 -9
21 -29 24 -60 3 -25 16 -75 30 -109 34 -89 39 -106 38 -154 -1 -34 2 -42 13
-38 13 5 13 1 2 -27 -20 -50 -12 -105 21 -141 14 -16 14 -18 0 -18 -36 0 -24
-56 25 -114 l24 -30 31 23 32 22 0 -28 c0 -15 -6 -40 -14 -54 -13 -25 -11 -29
25 -69 22 -23 39 -51 39 -62 0 -11 4 -27 10 -37 13 -25 56 -16 87 18 l24 26
-12 -25 c-6 -14 -17 -32 -25 -40 -11 -13 -7 -21 26 -57 33 -35 41 -39 51 -27
7 8 16 11 20 7 13 -14 25 -107 18 -140 -6 -29 -5 -31 13 -22 42 22 48 -12 19
-96 -18 -51 -18 -55 -2 -60 10 -3 39 -19 65 -35 l48 -31 -40 -43 c-41 -45 -77
-104 -69 -113 3 -2 14 0 25 6 11 6 21 8 24 6 2 -2 1 -32 -2 -67 -7 -63 -6 -63
36 -118 76 -99 111 -175 121 -267 l5 -53 -35 0 c-43 0 -48 -11 -30 -74 21 -70
23 -85 13 -91 -9 -6 -24 40 -35 105 -11 70 -139 476 -155 493 -4 5 -21 -11
-38 -35 -37 -52 -111 -130 -172 -179 -73 -59 -266 -181 -405 -258 -71 -39
-137 -76 -145 -81 -8 -5 -113 -59 -233 -119 -359 -181 -448 -244 -504 -358
-28 -59 -37 -163 -15 -185 9 -9 12 -5 13 18 2 73 25 153 54 190 21 26 24 27
31 11 4 -13 -2 -27 -22 -48 l-28 -29 45 0 c25 0 60 -9 81 -20 29 -15 43 -18
63 -10 41 16 119 12 193 -10 281 -82 273 -79 265 -109 -8 -30 210 -129 332
-150 3 -1 10 -1 16 -1 6 0 2 -12 -8 -27 -82 -121 -89 -294 -15 -368 38 -38 73
-54 131 -59 48 -4 51 -3 57 21 6 24 0 137 -9 179 -9 36 -49 128 -65 147 -18
21 -12 21 35 2 19 -8 37 -15 39 -15 13 0 1 93 -17 129 -11 24 -18 45 -15 48 3
4 20 2 38 -4 32 -9 33 -11 32 -61 -2 -57 1 -60 34 -36 33 23 51 65 63 150 11
80 35 154 49 154 13 0 123 -117 141 -150 16 -29 15 -80 -1 -80 -4 0 -10 -6
-13 -13 -3 -8 7 -13 29 -14 28 -1 42 6 79 43 25 24 49 44 54 44 5 0 14 -14 21
-31 12 -29 11 -32 -14 -53 l-28 -21 44 -19 c85 -38 224 -204 277 -334 8 -18
22 -34 35 -37 11 -2 57 -12 101 -21 120 -24 125 -26 125 -34 0 -4 -28 -22 -62
-40 -108 -56 -155 -89 -180 -128 -35 -53 -41 -82 -18 -82 11 0 80 -16 156 -35
138 -36 212 -44 272 -31 56 13 29 24 -153 61 -43 9 -95 25 -115 35 -35 18 -87
66 -79 74 2 2 36 19 74 38 95 45 159 84 225 134 56 42 130 117 130 132 0 4
-109 7 -242 7 l-243 0 -18 80 c-10 44 -59 199 -107 345 -107 320 -131 409
-132 504 0 69 19 137 43 152 11 6 20 -32 18 -71 -4 -59 2 -69 104 -171 86 -86
111 -105 150 -116 31 -8 47 -18 47 -28 0 -44 33 -110 64 -130 18 -11 54 -42
80 -70 26 -27 49 -50 51 -50 3 0 5 8 5 18 0 55 82 66 100 14 14 -37 41 -86 54
-94 5 -4 18 -2 27 3 32 16 31 45 -1 105 -36 67 -36 73 -9 108 l20 26 -28 1
c-15 1 -30 1 -33 1 -3 1 -16 -2 -30 -5 -23 -6 -26 -3 -28 21 -4 55 -57 232
-69 232 -3 0 -17 -9 -31 -21 l-27 -21 -7 63 c-10 85 -41 143 -153 284 -88 110
-94 121 -78 133 17 12 16 15 -12 38 -90 73 -85 66 -70 111 20 59 4 109 -63
191 -19 23 -31 42 -27 42 11 0 50 -46 98 -115 63 -92 381 -512 571 -755 353
-452 854 -1057 1037 -1255 20 -22 48 -53 62 -70 l26 -30 -5 27 c-2 15 -11 51
-18 80 -8 29 -13 81 -12 115 1 55 5 66 32 95 l32 33 -20 80 c-20 84 -21 176
-2 182 6 2 14 -11 18 -28 8 -42 23 -59 52 -59 29 0 29 1 -21 179 -20 73 -19
120 3 138 57 46 59 46 85 21 34 -32 80 -104 104 -163 33 -79 50 -152 89 -390
10 -60 25 -103 44 -128 18 -23 19 -28 6 -63 -7 -22 -28 -68 -45 -103 -17 -36
-31 -67 -31 -69 0 -7 56 68 111 148 104 149 230 377 319 575 13 28 36 78 52
113 15 35 61 141 100 235 173 419 248 597 278 662 63 137 140 290 141 280 1
-5 3 -27 4 -48 7 -84 16 -121 35 -154 23 -40 8 -44 -31 -7 -35 34 -47 15 -14
-24 24 -28 26 -49 9 -104 -3 -9 1 -18 9 -20 11 -2 2 -28 -34 -102 -96 -194
-154 -359 -158 -449 -1 -13 -8 -16 -33 -15 -29 3 -33 0 -43 -37 -16 -53 -10
-69 18 -50 12 8 30 15 40 15 16 0 16 -2 -3 -28 -21 -28 -26 -46 -33 -114 -11
-104 59 -65 159 88 29 45 67 93 85 107 30 23 33 30 30 74 -1 26 5 82 13 123
15 79 14 127 -5 162 -11 20 -5 30 25 41 5 2 8 34 7 71 -1 40 3 74 10 82 19 23
29 16 19 -12 -6 -14 -10 -44 -10 -66 0 -36 2 -39 16 -27 8 7 22 25 29 40 13
25 17 39 30 114 8 46 34 100 55 113 18 11 19 6 15 -136 -5 -176 -16 -337 -30
-442 -3 -19 -7 -62 -11 -95 -3 -33 -7 -67 -9 -75 -2 -8 -7 -33 -10 -55 -3 -23
-8 -52 -10 -65 -3 -14 -8 -45 -11 -70 -3 -25 -11 -50 -17 -56 -7 -6 -50 -26
-97 -44 -146 -57 -305 -155 -278 -171 13 -8 71 -17 158 -24 57 -5 134 -14 160
-19 72 -14 91 -19 96 -27 8 -13 -13 -47 -73 -119 -47 -57 -83 -133 -70 -147 3
-2 25 8 49 23 124 78 181 157 176 241 l-3 48 -80 12 c-44 6 -86 12 -92 12 -29
2 -10 21 20 21 39 0 120 37 164 74 48 41 77 108 69 163 -3 25 -11 52 -18 60
-10 13 -6 14 26 9 36 -6 37 -6 22 15 -26 38 -3 99 38 99 19 0 21 5 21 63 0 51
5 71 29 112 40 67 114 145 139 145 11 0 36 -12 56 -27 40 -31 48 -33 73 -21
13 6 18 1 24 -25 4 -17 6 -44 5 -59 -1 -23 3 -28 23 -28 13 0 45 -9 69 -19 49
-21 57 -19 57 16 0 26 -20 38 -85 48 -33 6 -36 9 -20 15 12 4 43 11 69 14 68
10 116 37 192 109 66 62 117 97 142 97 14 0 12 22 -5 66 -5 14 -3 16 12 11 10
-4 56 -10 104 -12 225 -13 277 -23 348 -65 43 -25 42 -18 -4 26 -67 63 -174
128 -303 183 -61 26 -332 120 -367 127 -48 9 -352 118 -428 154 -183 84 -299
189 -359 323 -21 48 -22 58 -10 74 22 29 16 36 -13 16 -36 -25 -73 -27 -134
-7 l-49 16 18 30 c9 17 29 41 44 53 24 20 33 22 60 14 18 -5 34 -9 35 -9 2 0
1 15 0 33 -4 44 9 80 58 162 24 39 46 85 50 102 6 29 9 32 26 22 16 -8 22 -5
37 22 9 17 24 41 33 52 16 20 17 19 33 -35 22 -76 45 -84 76 -24 8 16 25 33
38 39 15 7 21 16 16 26 -13 32 -22 71 -17 71 2 0 16 -9 30 -20 14 -11 29 -20
32 -20 13 0 51 90 51 120 0 21 5 30 16 30 8 0 12 5 9 11 -4 5 1 19 11 30 16
18 16 19 -7 19 -19 0 -27 8 -37 37 -30 86 -36 122 -24 159 9 30 8 38 -8 54
-24 24 -19 48 20 111 16 27 30 59 30 72 0 12 12 42 26 67 25 44 26 45 8 78
-14 26 -15 37 -7 51 9 14 8 23 -3 40 -12 16 -12 21 -2 22 20 2 21 2 46 -6 17
-5 22 -2 22 13 0 11 6 25 14 31 9 8 11 23 7 49 -5 33 -6 62 -2 100 0 6 9 12
19 12 38 0 80 62 50 73 -10 3 -10 8 1 21 20 24 2 38 -58 44 -42 4 -51 8 -51
24 0 17 6 19 43 17 37 -2 107 15 107 27 0 1 -16 30 -35 62 -19 33 -36 76 -39
95 -6 48 16 116 44 139 18 14 21 23 14 35 -14 22 6 145 23 139 16 -6 16 -5 3
30 -10 26 -13 27 -65 21 -45 -5 -55 -3 -55 10 0 8 11 24 25 35 23 18 24 24 20
89 -7 84 7 115 69 160 l45 32 -32 31 c-18 17 -34 27 -36 21 -10 -27 -33 -42
-57 -37 -43 8 -70 72 -30 72 7 0 23 11 35 24 28 30 23 61 -25 158 -37 73 -43
122 -18 149 14 16 11 17 -56 14 -39 -1 -73 2 -76 7 -3 4 -13 8 -23 8 -10 0
-23 6 -29 13 -13 15 14 60 73 124 52 56 113 149 125 191 16 59 12 85 -23 143
-28 46 -32 60 -24 83 7 22 3 49 -19 120 -23 75 -34 95 -59 112 -48 31 -69 95
-54 162 6 29 5 32 -9 26 -10 -3 -28 -9 -41 -12 -20 -4 -22 -2 -13 14 6 11 20
27 31 36 12 10 21 21 21 25 0 16 -58 69 -128 118 -85 60 -107 92 -98 145 l6
38 -70 27 c-90 34 -103 47 -95 94 l6 36 -65 3 c-36 1 -74 6 -85 10 -20 7 -20
9 9 52 28 42 29 46 13 55 -10 6 -58 49 -106 97 -55 55 -100 91 -120 96 -29 8
-34 6 -52 -23 -26 -41 -53 -73 -98 -114 -32 -31 -39 -33 -61 -23 -20 9 -28 8
-41 -4 -8 -9 -15 -23 -15 -32 0 -32 14 -41 60 -36 37 3 51 10 78 41 26 31 34
35 41 23 8 -11 -3 -28 -42 -70 -70 -73 -127 -145 -127 -157 0 -6 6 -13 14 -16
15 -6 45 28 88 101 21 37 27 41 37 28 11 -13 9 -22 -7 -48 -11 -18 -22 -44
-24 -58 -3 -23 0 -25 42 -25 28 0 59 -8 80 -21 20 -11 46 -19 58 -17 18 2 22
-2 22 -23 0 -17 4 -24 13 -21 51 21 50 21 42 -4 -17 -55 -79 -139 -119 -161
-10 -6 -32 -12 -47 -15 -24 -3 -28 -1 -22 14 10 29 35 53 55 53 26 0 23 26 -4
33 -25 7 -62 -13 -76 -40 -14 -27 -23 -88 -17 -106 11 -27 80 -12 155 32 37
22 81 45 97 51 25 8 23 5 -16 -28 -24 -20 -62 -54 -85 -74 l-41 -37 30 -1 c17
0 41 7 53 16 21 14 22 14 22 -8 0 -17 11 -29 36 -43 43 -23 66 -24 117 -8 46
15 48 4 5 -22 -66 -38 -59 -54 19 -49 57 4 58 4 60 -23 1 -25 20 -48 69 -81
13 -9 15 -14 7 -18 -7 -3 -13 -23 -13 -44 0 -29 13 -57 55 -121 67 -100 74
-132 46 -187 -26 -51 -26 -63 -2 -89 16 -16 29 -20 60 -17 23 2 41 2 41 0 0
-2 -13 -33 -30 -68 -35 -75 -37 -91 -10 -129 24 -32 23 -35 -38 -127 l-35 -53
25 -75 c14 -41 25 -74 24 -74 -2 0 -20 9 -42 19 -22 11 -43 16 -48 11 -12 -12
12 -67 38 -86 20 -15 19 -16 -24 -10 -24 4 -47 11 -50 15 -3 5 -15 12 -28 15
-21 7 -22 5 -16 -21 3 -15 10 -42 15 -59 23 -75 15 -97 -36 -96 -28 0 -29 -5
-15 -42 7 -19 4 -37 -12 -75 l-20 -50 -29 15 c-16 8 -52 34 -81 57 -74 60 -88
67 -51 24 140 -161 174 -395 84 -579 -15 -32 -24 -58 -21 -58 19 0 67 50 101
104 37 58 39 59 40 31 1 -43 6 -74 34 -210 53 -264 53 -367 0 -483 -23 -49
-26 -52 -52 -46 -15 4 -37 13 -48 20 -25 15 -158 55 -205 61 -19 2 -50 8 -68
13 -41 11 -321 9 -381 -2 -26 -5 -64 -11 -86 -13 -80 -10 -331 -77 -490 -130
-133 -45 -390 -124 -420 -130 -16 -3 -55 -12 -85 -20 -72 -19 -93 -19 -107 3
-17 28 -86 59 -135 61 -14 1 -14 6 5 41 26 48 14 64 -37 49 -52 -15 -52 -11
-2 40 l48 49 -33 34 c-44 43 -111 156 -98 164 5 3 7 26 3 53 -5 36 -2 51 9 63
10 9 12 19 7 24 -5 5 -11 30 -13 54 -3 41 -6 45 -30 44 -21 0 -27 5 -27 21 0
24 33 48 75 55 22 4 31 11 33 29 3 21 1 23 -25 17 -44 -11 -100 -52 -114 -85
-13 -28 -15 -29 -31 -14 -25 22 -22 63 7 133 30 72 31 83 4 127 -26 42 -22 82
21 176 16 37 30 70 29 74 -1 5 -1 20 0 36 1 23 5 27 30 27 16 0 42 5 56 10 22
9 26 14 20 33 -10 30 -11 68 -1 95 6 19 4 22 -17 22 -16 0 -37 -15 -66 -50
-42 -50 -42 -50 -72 -35 -46 24 -38 45 17 45 45 0 46 1 40 28 -3 15 -9 53 -12
84 -6 53 -5 58 21 82 l28 26 33 -20 c33 -21 94 -35 94 -22 0 4 -26 31 -57 61
l-58 54 40 9 c94 20 217 63 318 110 93 45 107 54 107 76 0 24 0 24 -27 6 -15
-9 -39 -28 -53 -41 -31 -29 -66 -39 -85 -23 -11 9 -23 5 -60 -20 -25 -17 -61
-38 -80 -46 -40 -16 -128 -19 -156 -4 -14 8 -19 7 -19 -3 0 -8 -20 -55 -45
-104 -24 -50 -47 -109 -51 -133 -6 -34 -9 -40 -18 -28 -6 8 -33 41 -61 72 -56
65 -105 142 -105 168 0 10 -6 15 -12 13 -15 -5 -65 -14 -123 -22 l-41 -5 4
108 4 108 -36 -32 c-21 -18 -41 -30 -45 -27 -5 3 10 51 33 107 42 104 45 115
35 133 -3 6 -5 31 -4 58 2 38 8 51 29 68 29 23 36 75 14 98 -11 10 -9 14 7 23
11 6 34 26 52 44 26 28 30 38 24 61 -4 16 -12 28 -17 28 -5 -1 -34 -39 -65
-85 -59 -89 -96 -120 -141 -120 l-28 0 32 45 c23 33 31 54 30 82 -2 36 1 39
52 66 73 38 103 85 99 152 -1 28 0 61 3 74 5 23 7 23 30 -17 37 -61 84 -50 84
19 0 24 -66 93 -97 101 -16 4 -19 1 -15 -19 9 -45 -58 -92 -128 -89 -41 1 -48
20 -31 84 14 50 46 91 84 107 28 12 29 13 11 23 -11 6 -45 13 -77 16 -50 4
-57 3 -57 -13 0 -10 -13 -32 -30 -49 -16 -18 -30 -36 -30 -42 0 -5 -5 -10 -10
-10 -6 0 -9 3 -8 8 1 4 -1 24 -5 44 -6 29 -14 39 -33 44 -14 4 -26 5 -28 3 -7
-11 -35 -93 -32 -96 2 -2 16 -6 32 -9 39 -7 41 -11 16 -37 -12 -13 -22 -33
-22 -45 0 -18 6 -22 30 -22 17 0 30 -5 30 -11 0 -12 -29 -38 -42 -39 -3 0 -20
30 -38 68 -37 79 -65 112 -96 112 l-23 0 32 71 c17 39 37 73 44 76 8 3 32 -9
53 -26 24 -19 50 -31 69 -31 38 0 38 4 4 35 l-28 24 38 1 c41 0 49 18 17 38
-17 10 -19 16 -9 33 14 27 59 21 130 -16 27 -14 49 -22 49 -19 0 47 -97 135
-150 136 -37 1 -40 -2 -43 -37 -4 -50 -43 -68 -149 -69 l-93 -1 3 25 c5 34 11
38 26 17 17 -22 27 -21 68 2 18 10 48 17 66 17 17 -1 32 -1 32 1 0 1 -20 16
-44 32 -31 22 -43 36 -40 49 5 15 14 17 72 14 37 -2 79 1 94 7 27 10 27 10 13
52 -9 23 -14 44 -11 46 2 2 22 0 45 -6 22 -5 41 -5 41 -1 0 4 20 30 45 58 24
27 43 51 40 53 -2 3 -6 19 -10 37 -8 45 15 42 55 -8 31 -39 70 -54 70 -26 0 8
-9 36 -21 62 l-20 48 23 -19 c65 -56 105 -96 155 -154 l55 -64 -7 49 c-4 27
-8 54 -9 59 0 6 12 10 27 10 25 -1 27 2 22 25 -10 39 -52 98 -88 122 l-33 21
34 32 c31 28 38 44 41 93 1 9 6 10 19 3 14 -8 18 -19 15 -51 -3 -40 -2 -40 25
-34 45 11 72 23 72 32 0 5 -7 32 -16 62 -12 39 -29 65 -65 101 -28 27 -44 49
-36 49 9 0 31 31 51 71 l35 72 -24 29 c-29 34 -34 74 -9 64 9 -3 17 -6 20 -6
10 0 31 -57 28 -77 -3 -17 0 -20 16 -16 22 6 25 -4 10 -42 -11 -28 7 -84 37
-117 9 -10 11 -18 5 -18 -6 0 -13 4 -16 9 -8 13 -56 20 -62 9 -11 -17 56 -75
118 -103 l60 -27 -20 -21 c-37 -42 -36 -47 7 -41 87 12 171 -50 171 -125 l0
-39 -35 11 c-45 13 -53 5 -26 -30 21 -26 21 -28 4 -34 -10 -4 -31 -8 -47 -8
-26 -1 -28 2 -23 26 6 35 -8 73 -28 73 -10 0 -15 -10 -15 -28 0 -15 -7 -38
-17 -51 -16 -23 -15 -25 7 -43 53 -43 117 -74 156 -77 8 -1 7 -15 -1 -48 -17
-66 -14 -78 20 -76 38 3 73 28 81 58 5 21 12 25 45 25 32 0 41 -4 48 -22 7
-19 5 -24 -13 -28 -23 -6 -31 -29 -22 -66 7 -26 42 -46 111 -64 64 -16 73 -25
51 -49 -18 -20 -18 -21 7 -32 43 -19 73 -5 89 43 7 23 18 43 25 45 6 2 23 -16
38 -41 14 -24 33 -50 42 -58 15 -12 16 -9 10 23 -10 65 -84 149 -131 149 -21
0 -31 21 -15 31 25 16 65 9 124 -21 62 -32 72 -30 78 10 6 36 22 35 45 -3 21
-36 46 -46 137 -53 58 -4 93 -10 117 -19 16 -7 17 -4 4 26 -7 19 -12 45 -10
58 10 58 70 115 138 131 30 7 36 5 36 -9 0 -10 -7 -26 -15 -37 -21 -28 -18
-34 18 -34 54 0 76 39 91 163 7 55 -3 60 -54 22 -31 -23 -35 -24 -52 -8 -23
21 -24 20 15 43 33 20 73 26 79 12 2 -5 21 -15 42 -24 l40 -15 37 58 c38 59
77 92 101 88 24 -5 53 10 73 38 11 15 35 46 53 70 32 43 32 43 8 39 -41 -7
-59 15 -63 80 -2 32 -6 60 -9 63 -3 3 -18 0 -34 -6 -28 -10 -30 -9 -30 10 0
54 -77 124 -155 143 -16 4 -40 14 -52 22 -21 13 -23 13 -23 -7 0 -12 -11 -46
-25 -74 -25 -53 -67 -89 -115 -100 -23 -6 -27 -2 -43 43 -17 48 -59 91 -75 76
-4 -4 -11 -26 -17 -49 -8 -32 -15 -43 -32 -45 -26 -4 -27 -12 -13 -62 12 -40
16 -162 6 -178 -4 -7 -15 -2 -31 14 -26 26 -46 30 -76 14 -18 -10 -19 -7 -17
63 2 91 -6 107 -38 77 -28 -28 -74 -21 -74 10 0 11 -4 20 -8 20 -4 0 -7 -26
-7 -57 2 -73 -1 -80 -28 -78 -12 1 -33 -6 -46 -17 -13 -10 -34 -18 -47 -18
-25 0 -84 53 -84 76 0 23 -20 16 -30 -10 -10 -26 -63 -72 -67 -59 -2 5 8 44
22 86 14 43 25 80 25 82 0 12 -21 3 -49 -21 -25 -21 -32 -23 -37 -11 -3 8 6
26 21 41 29 29 31 69 3 74 -17 3 -52 -25 -59 -47 -2 -6 -15 -13 -27 -16 -22
-4 -23 -1 -19 30 5 38 -17 95 -56 141 -27 32 -35 50 -17 39 24 -15 50 -13 60
4 5 10 8 45 5 78 -5 87 8 97 35 27 22 -61 36 -84 51 -84 5 0 9 8 9 18 0 46 60
83 74 46 10 -25 8 -27 -24 -20 -26 5 -30 3 -30 -17 0 -46 47 -63 77 -28 16 19
16 19 33 -2 15 -18 20 -19 33 -8 9 7 24 11 34 8 14 -4 14 -5 -4 -6 -12 0 -27
-10 -33 -21 -24 -44 20 -89 50 -51 15 20 15 20 40 -15 13 -20 23 -45 23 -56
-2 -19 1 -18 27 7 16 16 35 44 42 64 12 35 16 236 5 247 -3 3 -20 -2 -37 -11
l-32 -17 8 44 c4 24 8 61 8 83 1 38 -1 40 -31 43 -26 3 -31 0 -28 -15 3 -10 6
-35 9 -56 4 -36 2 -38 -17 -32 -43 13 -50 10 -63 -25 -14 -38 -18 -93 -8 -103
4 -3 22 0 40 8 36 15 42 8 24 -26 -28 -51 -120 13 -120 83 0 20 8 31 29 42 29
15 56 60 65 108 6 33 -1 40 -28 26 -31 -17 -40 -28 -76 -93 -33 -62 -80 -119
-80 -98 0 7 5 15 10 18 19 12 10 54 -19 87 -37 43 -54 76 -45 89 4 7 12 -1 21
-19 17 -35 55 -56 72 -39 6 6 11 15 11 20 0 6 12 30 28 54 29 48 29 48 124 24
59 -14 108 15 147 88 17 33 31 61 31 64 0 2 -25 7 -55 11 -30 3 -74 14 -98 23
-44 17 -125 68 -142 89 -8 10 -17 10 -42 -1 -36 -16 -38 -24 -21 -90 11 -39
10 -47 -5 -62 -16 -16 -17 -16 -17 11 0 31 -14 61 -41 92 -19 20 -18 21 11 67
21 33 26 49 17 52 -127 47 -132 48 -288 51 -86 2 -158 2 -160 0z m633 -267 c3
-16 2 -32 -2 -34 -7 -5 -70 44 -70 54 0 3 15 7 34 8 31 3 34 0 38 -28z m-210
-21 c6 -55 1 -65 -32 -60 -26 4 -30 1 -30 -19 0 -21 -1 -22 -16 -8 -20 21 -31
85 -12 73 22 -14 38 -13 39 2 1 8 3 19 4 24 1 6 3 12 4 15 0 3 10 5 20 5 14 0
20 -9 23 -32z m-115 -410 c7 -9 4 -22 -9 -43 -17 -25 -19 -26 -15 -7 3 14 0
22 -8 22 -16 0 -37 25 -28 33 11 12 50 8 60 -5z m-191 -101 c12 -7 34 -27 49
-45 25 -29 32 -33 61 -27 22 4 35 1 41 -8 4 -7 19 -20 32 -29 l23 -16 -28 -14
c-16 -8 -35 -14 -42 -14 -17 1 -103 77 -142 125 -33 42 -31 49 6 28z m-7 -63
c27 -19 51 -71 51 -110 0 -26 -29 -98 -36 -91 -3 2 -6 32 -8 67 -2 34 -10 68
-18 75 -7 7 -33 16 -57 19 -24 3 -46 8 -48 10 -6 6 61 46 77 46 9 0 26 -7 39
-16z m1347 -64 c1 -23 -3 -30 -17 -30 -23 0 -59 -19 -76 -40 -7 -8 -30 -51
-52 -95 -36 -73 -77 -132 -87 -122 -2 2 -5 17 -7 33 -10 84 -54 95 -100 26
-16 -24 -31 -42 -33 -40 -2 3 5 27 16 55 10 28 17 63 14 77 -2 14 -3 26 0 26
18 0 78 -34 89 -51 15 -20 16 -19 57 34 28 37 54 61 81 71 23 9 39 22 36 29
-4 12 48 57 68 57 5 0 11 -13 11 -30z m84 -60 c0 -24 -42 -70 -65 -70 -24 0
-18 19 19 56 40 40 46 41 46 14z m-72 -113 c18 -11 32 -13 55 -6 41 12 50 11
42 -2 -10 -14 -110 -59 -134 -59 -32 0 -33 -16 -4 -69 15 -27 25 -53 21 -57
-4 -4 -25 5 -47 19 -33 22 -39 31 -39 62 0 28 4 36 23 41 21 5 22 9 14 44 -5
22 -8 50 -7 64 l2 26 26 -24 c14 -12 36 -30 48 -39z m-1156 28 c24 -16 41 -37
46 -57 11 -45 30 -47 30 -3 0 35 18 69 32 60 4 -2 6 -17 4 -32 -1 -15 -2 -42
-3 -59 -1 -29 -4 -31 -32 -29 -30 3 -31 2 -27 -36 4 -46 -1 -48 -30 -14 -12
14 -26 25 -31 25 -4 0 -11 21 -14 48 -3 26 -10 64 -15 85 -6 20 -7 37 -3 37 3
0 23 -11 43 -25z m568 -22 c0 -26 -27 -73 -42 -73 -15 0 -16 4 -7 27 6 15 15
33 21 40 11 14 28 17 28 6z m-1110 -48 c0 -31 -53 -105 -66 -93 -7 7 15 60 33
80 15 17 33 24 33 13z m1570 -49 c-6 -19 -18 -40 -27 -48 -15 -12 -16 -10 -10
19 8 38 39 91 45 74 2 -6 -1 -26 -8 -45z m-743 -59 c5 -53 22 -73 52 -58 19
10 21 9 21 -13 0 -25 -16 -36 -55 -36 -12 0 -33 -8 -46 -19 -22 -18 -23 -18
-44 8 -54 65 -59 101 -9 72 19 -12 37 -21 39 -21 2 0 6 19 10 43 14 89 26 99
32 24z m1253 18 l29 -15 -19 -45 -19 -45 24 4 c18 3 33 -4 57 -29 26 -28 35
-32 51 -23 19 10 19 8 12 -23 -5 -19 -9 -50 -10 -69 -2 -24 -7 -34 -16 -31
-103 28 -129 17 -98 -41 10 -19 9 -20 -12 -15 -13 4 -30 7 -36 7 -7 0 -13 4
-13 8 0 11 64 78 85 90 14 7 14 11 1 37 -8 16 -13 32 -10 37 13 20 -21 5 -48
-22 -16 -16 -36 -30 -44 -30 -33 0 1 46 45 61 l33 12 -39 19 c-21 10 -49 25
-63 33 -14 8 -29 16 -33 18 -4 1 -1 19 8 40 14 33 19 37 51 37 19 0 48 -7 64
-15z m-962 -47 c10 -13 18 -16 30 -9 15 8 17 4 17 -38 0 -40 -3 -47 -17 -43
-28 7 -59 48 -65 87 -5 31 -4 37 8 30 8 -5 20 -17 27 -27z m-134 -43 c6 -23
26 -36 26 -16 0 5 6 11 14 14 11 4 12 -2 4 -34 -6 -21 -15 -39 -20 -39 -16 0
-58 49 -58 68 0 38 25 43 34 7z m-1000 -57 c8 -13 18 -36 22 -53 l7 -30 -35
33 c-19 17 -42 32 -51 32 -20 0 -22 11 -5 28 19 19 46 14 62 -10z m1232 7 c6
-16 -42 -95 -57 -95 -20 0 -18 24 6 65 27 47 42 55 51 30z m-121 -120 c-14
-49 -89 -155 -109 -155 -7 0 -21 7 -32 15 -10 8 -40 15 -66 15 -27 0 -48 4
-48 8 0 16 70 76 161 135 81 54 95 60 101 45 4 -10 1 -38 -7 -63z m63 -164
c12 -1 17 -33 6 -44 -4 -4 -12 -3 -18 1 -6 4 -15 7 -20 7 -5 0 -12 10 -17 22
-7 20 -5 22 14 19 12 -3 28 -5 35 -5z m-1420 -648 c-6 -7 -29 -18 -52 -25 -56
-16 -63 -23 -58 -56 3 -24 0 -30 -20 -35 -12 -4 -25 -7 -28 -7 -3 0 -4 27 -2
60 l4 61 -29 -7 c-15 -4 -38 -11 -51 -15 -31 -12 -32 -12 -25 7 10 26 43 33
160 31 87 -2 109 -5 101 -14z m-328 -148 c0 -23 -26 -81 -40 -90 -19 -12 -33
10 -15 25 25 21 18 37 -15 32 -39 -6 -38 3 3 28 38 24 67 26 67 5z m135 -245
c3 -6 1 -25 -6 -44 -11 -29 -10 -38 5 -61 10 -15 14 -34 11 -46 -10 -31 -29
-17 -35 27 -4 34 -9 39 -33 42 -16 2 -34 -1 -40 -7 -8 -6 -18 -6 -27 -1 -23
15 1 43 44 54 21 4 43 17 49 27 13 21 23 24 32 9z m-345 -169 c-5 -11 -15 -23
-20 -26 -20 -12 -10 -35 14 -35 57 0 77 -32 29 -45 -59 -16 -72 -14 -98 17
-14 16 -25 33 -25 36 0 6 98 70 108 72 1 0 -2 -9 -8 -19z m430 -241 c-13 -24
-84 -29 -93 -6 -8 20 -3 23 54 25 47 1 49 0 39 -19z m-239 -494 c1 -12 1 -30
0 -41 -2 -24 -50 -70 -61 -58 -5 4 -11 33 -15 64 -7 55 -6 57 21 71 26 13 30
13 42 -1 6 -8 13 -24 13 -35z m3411 -55 c-3 -21 -9 -28 -25 -27 -30 1 -33 33
-6 57 26 23 37 12 31 -30z m-292 24 c7 -8 19 -15 28 -15 17 0 62 -38 62 -53 0
-15 -100 -2 -117 16 -10 10 -13 24 -9 41 7 30 18 33 36 11z m-2409 -40 c6 -41
-10 -65 -43 -65 l-31 0 21 23 c12 13 25 38 28 56 7 34 19 27 25 -14z m2530
-164 c3 0 11 -12 17 -26 7 -15 20 -25 32 -25 23 0 26 -13 6 -29 -21 -17 -64 3
-72 34 -3 14 -12 25 -20 25 -18 0 -44 -39 -37 -57 4 -11 -1 -13 -23 -7 -39 9
-39 9 -15 33 12 12 21 25 21 29 0 19 52 32 91 23z m-2974 -106 c14 -10 19 -22
16 -35 l-6 -21 -21 20 c-12 12 -32 21 -44 21 -13 0 -22 6 -22 15 0 20 49 20
77 0z m427 -1 c30 -29 20 -44 -30 -44 l-45 0 21 30 c24 34 32 36 54 14z m1676
-724 c122 -27 224 -68 299 -119 34 -23 62 -37 62 -31 1 5 3 15 4 20 1 6 3 20
4 33 1 23 1 23 141 18 11 -1 15 -10 14 -28 -1 -16 3 -39 8 -51 6 -17 3 -31
-10 -50 -27 -40 -42 -80 -49 -126 -3 -23 -8 -59 -12 -81 l-7 -40 -52 3 c-37 2
-61 -2 -78 -12 -28 -19 -29 -13 -9 45 16 45 7 71 -15 44 -7 -9 -14 -28 -16
-43 -1 -15 -2 -30 -3 -34 -1 -5 -10 -8 -21 -8 -17 0 -20 6 -18 43 3 40 2 42
-27 45 -16 2 -41 12 -55 22 -16 11 -31 15 -40 10 -8 -4 -25 -10 -36 -14 -19
-6 -21 -3 -16 19 3 17 11 25 24 25 36 0 15 34 -32 51 l-45 17 -5 -45 -5 -45
-25 22 c-21 19 -33 21 -82 17 -37 -3 -74 -15 -105 -33 -27 -15 -76 -43 -110
-61 l-63 -34 0 -64 c0 -85 12 -81 -270 -89 -86 -2 -111 -6 -139 -24 l-35 -21
-21 32 c-72 106 -88 213 -47 307 23 52 48 76 126 118 64 36 142 58 235 67 35
3 67 7 70 9 3 2 36 7 73 10 81 9 104 15 188 54 64 29 90 40 100 41 3 1 48 -8
100 -19z m-1833 -87 c-2 -5 -12 -24 -21 -44 -15 -33 -61 -67 -74 -55 -7 8 27
58 57 83 25 22 47 31 38 16z m943 -111 c0 -20 -35 -53 -84 -80 -46 -25 -56
-27 -61 -14 -7 20 27 56 79 82 43 21 66 25 66 12z m-2376 -38 c-16 -7 -36 -15
-44 -18 -8 -3 -26 -14 -40 -23 -21 -15 -23 -15 -12 -1 7 9 28 24 47 33 19 9
35 20 35 25 0 4 10 6 22 2 21 -5 20 -6 -8 -18z m1954 -215 c21 -30 22 -34 6
-37 -24 -5 -67 40 -58 62 9 23 25 16 52 -25z m172 -184 c-21 -37 -38 -55 -51
-55 -19 0 -19 1 -2 28 34 53 78 103 81 93 2 -6 -11 -36 -28 -66z m484 -20
c-13 -42 -17 -44 -64 -28 -25 8 -47 17 -50 20 -12 11 32 29 74 29 42 0 45 -2
40 -21z m-483 -257 c9 -16 5 -18 -31 -18 -22 0 -40 2 -40 5 0 4 7 20 16 37 16
31 17 31 31 12 8 -10 19 -27 24 -36z m1663 -47 c-3 -25 -8 -48 -11 -51 -3 -3
-16 8 -29 23 -28 33 -31 73 -7 100 17 18 18 18 35 -3 14 -18 17 -33 12 -69z
m-79 -66 c4 -16 9 -49 12 -73 4 -36 3 -41 -12 -36 -23 9 -36 48 -41 124 l-5
65 20 -25 c11 -13 22 -38 26 -55z m-1940 -9 c-3 -35 -31 -102 -46 -112 -17
-10 -8 42 16 94 13 28 26 52 29 52 2 0 3 -15 1 -34z m1847 -308 c25 -73 34
-88 52 -89 11 0 -8 -11 -44 -24 -134 -48 -280 -147 -280 -191 0 -12 3 -12 23
0 12 8 62 16 115 20 91 5 120 14 154 43 15 13 16 11 12 -34 -19 -241 -93 -417
-277 -661 -45 -59 -88 -114 -96 -122 -22 -22 -146 -191 -161 -220 -11 -21 -7
-19 36 13 72 56 115 82 152 95 17 6 32 9 32 7 0 -13 -181 -431 -230 -530 -63
-127 -156 -285 -170 -285 -4 0 -16 32 -25 72 -10 39 -27 94 -37 122 -41 108
-77 213 -88 256 -27 101 -18 238 20 310 18 34 70 100 79 100 4 0 25 -32 47
-72 28 -51 48 -75 69 -84 17 -7 32 -11 33 -9 2 2 -19 42 -47 90 -28 47 -51 88
-51 91 0 2 -11 21 -23 42 -13 20 -35 57 -49 82 -66 118 -217 374 -235 399 -1
2 -18 -10 -37 -27 -51 -45 -85 -49 -150 -18 -61 29 -83 31 -141 14 -22 -6 -43
-11 -46 -10 -4 1 -15 -20 -25 -46 -19 -51 -69 -148 -89 -172 -7 -8 -34 -53
-61 -100 -83 -142 -125 -243 -101 -238 50 10 88 -32 118 -130 15 -51 26 -44
30 18 3 52 25 104 41 94 16 -10 52 -100 78 -194 20 -72 24 -109 24 -250 1
-147 -8 -282 -19 -300 -2 -3 -7 -29 -11 -56 -3 -27 -10 -58 -14 -69 -9 -23
-10 -29 -10 -50 0 -26 -24 -11 -49 30 -38 63 -140 189 -266 330 -161 180 -257
310 -310 418 -49 101 -54 118 -27 94 9 -8 29 -19 44 -22 30 -8 78 1 78 13 0 4
-22 22 -48 41 -26 19 -72 53 -102 75 -311 228 -612 560 -781 861 l-34 60 30
-19 c17 -10 44 -33 60 -52 l30 -33 55 26 c72 35 159 36 245 4 102 -39 345
-120 368 -123 22 -3 23 5 12 112 -2 14 -3 37 -4 53 -1 16 -7 27 -15 27 -20 0
-29 -17 -36 -65 l-5 -40 -45 1 c-25 0 -63 9 -85 19 -44 20 -164 97 -165 105 0
3 26 16 58 30 l57 25 45 -23 c66 -33 189 -29 318 12 19 6 22 4 22 -18 0 -33 9
-37 56 -25 68 18 66 16 50 47 -8 16 -22 34 -30 41 -22 18 -20 41 3 41 11 0 39
23 64 51 38 43 46 48 51 33 8 -27 1 -54 -28 -113 -15 -28 -23 -52 -19 -52 5
-1 35 -3 68 -5 33 -1 81 -6 106 -10 27 -3 61 -2 80 5 71 23 104 23 130 1 16
-15 20 -23 12 -26 -7 -3 -13 -15 -13 -26 0 -18 4 -20 41 -14 23 4 54 14 68 24
54 35 67 43 100 58 19 9 47 14 63 12 23 -4 30 0 34 18 10 38 31 50 53 30 17
-16 19 -15 42 19 33 48 41 44 23 -12 -26 -87 -27 -93 -12 -93 8 0 79 -21 159
-46 127 -41 155 -47 234 -47 50 0 102 5 116 11 25 10 26 13 19 52 -6 35 -4 46
14 66 l21 25 -3 -65 -4 -66 34 6 c44 9 88 29 183 86 43 27 84 47 90 45 41 -16
55 -17 67 -4 11 12 16 12 35 0 22 -15 23 -14 23 13 -1 16 -5 49 -11 74 -5 25
-12 72 -14 105 -4 51 -3 56 6 30 6 -16 24 -69 41 -117z m88 123 c0 -5 3 -23 6
-40 7 -36 -11 -44 -21 -8 -4 12 -9 30 -11 40 -4 11 0 17 10 17 9 0 16 -4 16
-9z m-1208 -880 c55 -21 106 -121 123 -243 3 -23 8 -54 10 -68 2 -14 6 -63 9
-110 3 -47 8 -124 12 -173 5 -78 4 -88 -13 -94 -27 -11 -272 -5 -274 7 -2 7
-5 33 -13 113 -4 37 -9 78 -12 90 -31 155 -48 375 -33 430 8 28 16 36 56 49
49 16 92 15 135 -1z m-1433 -333 c22 -35 31 -88 19 -117 l-10 -26 -13 30 c-39
92 -36 177 4 113z"/>
<path d="M6070 4488 c-24 -10 -46 -21 -48 -23 -5 -5 31 -54 40 -55 7 0 61 90
56 95 -1 1 -23 -6 -48 -17z"/>
<path d="M6163 2922 c-23 -20 -45 -49 -49 -64 -7 -33 4 -36 34 -8 28 26 34 25
26 -4 l-6 -24 44 15 c55 19 55 19 29 40 -13 11 -22 31 -24 50 -1 18 -4 33 -7
33 -3 0 -24 -17 -47 -38z"/>
<path d="M4707 2928 c-18 -48 22 -124 93 -177 l35 -25 -21 24 c-12 14 -30 51
-40 82 -21 68 -57 120 -67 96z"/>
<path d="M4483 2849 c7 -19 34 -48 61 -68 l47 -34 29 34 c16 19 29 37 30 42 0
4 -16 7 -36 7 -20 0 -51 8 -68 19 -17 10 -41 22 -54 26 -22 6 -22 6 -9 -26z"/>
<path d="M5084 2696 l0 -82 30 1 c17 0 40 5 50 11 18 11 17 14 -17 71 -57 94
-62 94 -63 -1z"/>
<path d="M5810 2735 c-14 -8 -50 -27 -80 -42 -30 -16 -56 -36 -58 -45 -4 -22
-3 -22 43 -2 20 8 49 14 63 12 21 -2 30 5 53 45 30 49 24 58 -21 32z"/>
<path d="M5537 8839 c-25 -16 -54 -31 -65 -32 -18 -1 -18 -4 7 -57 21 -45 25
-70 25 -140 0 -47 -2 -101 -6 -120 -7 -41 -24 -149 -32 -202 -7 -49 3 -48 34
2 25 41 32 44 86 41 l32 -2 -23 45 c-27 54 -25 102 7 129 41 35 53 23 51 -49
-2 -82 11 -80 54 8 53 107 80 233 74 342 -1 18 -3 18 -27 -5 -14 -13 -39 -50
-55 -82 -26 -50 -74 -97 -101 -97 -4 0 4 22 18 49 24 49 36 126 27 176 -7 35
-47 33 -106 -6z m63 -49 c0 -23 -33 -60 -54 -60 -30 0 -24 29 12 53 45 32 42
31 42 7z"/>
<path d="M5835 8702 c2 -10 -12 -38 -31 -61 -29 -37 -32 -45 -19 -57 8 -8 22
-28 32 -44 15 -26 46 -43 41 -22 -1 4 4 40 11 81 10 54 10 80 2 97 -13 28 -42
33 -36 6z"/>
<path d="M5930 8623 c-8 -2 -21 -7 -29 -9 -11 -4 -12 -7 -3 -16 7 -7 12 -20
12 -31 0 -11 6 -18 18 -16 41 4 46 0 27 -21 -10 -11 -23 -19 -29 -17 -6 3 -22
-1 -36 -9 -14 -7 -32 -15 -42 -18 -20 -6 -38 -98 -26 -141 13 -49 31 -59 106
-56 24 1 32 6 32 20 0 13 -12 22 -46 31 -25 7 -48 20 -51 28 -4 9 16 35 52 71
68 66 78 87 63 133 -6 18 -12 39 -14 46 -4 13 -9 14 -34 5z"/>
<path d="M5017 8415 c-19 -55 -13 -60 82 -68 42 -3 73 -12 92 -26 27 -20 28
-20 50 -2 26 21 21 34 -29 64 -39 24 -157 77 -172 77 -4 0 -15 -20 -23 -45z"/>
<path d="M5304 8200 c3 -50 26 -90 51 -90 9 0 8 15 -4 58 -27 97 -51 113 -47
32z"/>
<path d="M5632 8179 c-17 -27 1 -85 28 -92 25 -6 25 12 2 70 -17 40 -18 41
-30 22z"/>
<path d="M4471 7935 c14 -10 36 -33 49 -52 l23 -34 23 28 23 28 -39 18 c-21 9
-54 20 -72 23 l-33 5 26 -16z"/>
<path d="M4655 7790 l-30 -5 52 -53 c53 -53 99 -75 50 -24 -15 16 -27 39 -27
54 0 32 -6 36 -45 28z"/>
<path d="M6164 7790 c-25 -10 -72 -65 -85 -98 -5 -13 -11 -45 -14 -70 -15
-158 -16 -173 -3 -171 36 4 58 -5 98 -42 53 -48 90 -69 115 -65 15 2 19 12 21
46 2 37 10 50 62 104 33 33 65 71 71 83 11 21 10 21 -21 6 -30 -15 -34 -15
-72 5 -38 21 -66 28 -66 18 0 -3 4 -16 9 -30 9 -23 8 -24 -22 -23 -20 1 -45
-8 -65 -21 l-32 -23 1 51 c1 28 -3 56 -9 62 -6 6 -8 25 -5 43 3 18 1 41 -5 51
-8 14 -4 21 21 38 48 33 49 56 1 36z m176 -258 c0 -12 -54 -62 -68 -62 -15 0
-15 2 13 46 13 21 24 30 37 26 10 -2 18 -7 18 -10z"/>
<path d="M4596 7753 c-3 -11 -21 -27 -40 -35 -18 -9 -36 -26 -39 -38 -5 -20
-4 -21 12 -6 10 9 31 16 47 16 29 0 48 -14 112 -84 42 -45 67 -49 50 -8 -19
42 -63 104 -101 141 -32 30 -36 31 -41 14z"/>
<path d="M4290 7731 c-23 -7 -25 -11 -22 -61 2 -36 8 -58 20 -66 25 -19 34
-17 72 14 39 33 35 57 -7 41 -37 -14 -37 -7 -3 36 16 21 30 39 30 41 0 6 -63
3 -90 -5z"/>
<path d="M4373 7580 c-47 -29 -75 -31 -123 -9 -24 11 -45 17 -47 15 -17 -17
51 -70 150 -114 4 -2 7 7 7 20 0 13 7 33 15 44 11 14 15 15 14 4 -5 -52 4 -72
56 -128 38 -41 55 -68 55 -86 0 -23 4 -26 34 -26 34 0 35 0 25 32 -5 18 -9 34
-9 36 0 1 13 1 28 0 56 -4 66 23 30 75 -27 39 -46 54 -77 62 -38 10 -36 -1 8
-53 22 -28 41 -52 41 -54 0 -3 -13 -3 -29 0 -17 2 -28 9 -25 16 2 6 -23 29
-56 51 -59 40 -62 45 -63 108 0 15 -1 27 -1 27 -1 0 -16 -9 -33 -20z"/>
<path d="M4521 7568 c-5 -13 -7 -25 -5 -27 1 -1 23 -4 47 -5 25 -1 51 -7 60
-14 12 -11 17 -8 26 19 6 18 11 36 11 40 0 5 -29 9 -65 9 -59 0 -67 -2 -74
-22z"/>
<path d="M5895 7513 c-40 -42 -44 -49 -30 -62 8 -8 16 -13 18 -10 30 39 77
108 77 113 0 17 -25 1 -65 -41z"/>
<path d="M4670 7530 c0 -5 18 -21 40 -35 47 -30 51 -45 12 -45 -19 0 -28 -5
-29 -18 -1 -15 7 -18 58 -17 54 0 59 2 59 22 0 15 -5 21 -14 17 -10 -4 -20 6
-30 29 -8 20 -23 40 -34 46 -26 14 -62 14 -62 1z"/>
<path d="M4186 7468 c2 -7 20 -24 39 -38 52 -39 62 -62 37 -97 -11 -16 -23
-53 -26 -88 l-7 -60 68 -18 c37 -9 74 -17 80 -17 13 0 97 100 90 106 -2 3 -19
-2 -38 -9 -37 -15 -43 -15 -76 -4 -35 13 -36 37 -3 99 16 32 30 62 30 67 0 5
-24 14 -52 21 -29 6 -68 20 -86 30 -38 23 -64 26 -56 8z"/>
<path d="M4855 7427 c-12 -47 -2 -68 37 -82 l37 -12 -14 34 c-8 19 -23 46 -34
59 l-20 26 -6 -25z"/>
<path d="M5743 7443 c-10 -3 -9 -10 2 -27 14 -21 14 -43 0 -88 -6 -18 -3 -19
32 -13 21 3 49 17 62 30 28 28 23 42 -9 25 -19 -10 -23 -8 -37 29 -16 41 -28
51 -50 44z"/>
<path d="M5630 7402 c-19 -9 -59 -20 -88 -27 l-54 -11 49 -26 c70 -38 128 -41
138 -7 12 36 12 78 1 82 -6 2 -27 -3 -46 -11z"/>
<path d="M6012 7387 c-17 -48 -15 -57 13 -57 34 0 46 44 18 71 -19 19 -19 19
-31 -14z"/>
<path d="M4132 7144 l-33 -39 26 -3 c14 -2 36 -2 48 0 24 3 24 3 7 42 l-16 39
-32 -39z"/>
<path d="M4740 6995 c0 -3 7 -22 15 -42 20 -48 19 -52 -11 -64 -44 -16 -68
-17 -84 -3 -13 11 -19 5 -44 -42 -47 -89 -122 -157 -230 -208 -102 -49 -126
-72 -126 -124 0 -27 -3 -33 -16 -28 -24 9 -57 -76 -57 -149 0 -91 60 -186 136
-214 31 -12 32 -14 -16 57 -44 65 -65 134 -64 200 2 66 19 97 46 83 11 -6 39
-1 84 14 l68 24 -8 -22 c-15 -42 -6 -111 22 -170 15 -31 31 -59 35 -62 17 -10
184 -8 187 2 6 17 -28 32 -78 35 -44 2 -73 24 -91 70 -10 25 -8 24 41 -22 25
-24 52 -40 67 -40 32 0 30 12 -4 27 -34 15 -64 64 -69 113 -4 31 0 39 22 54
l27 18 43 -49 43 -48 7 27 c6 22 1 35 -24 65 -37 45 -40 66 -9 61 13 -2 33
-19 47 -40 33 -52 53 -51 45 3 l-7 41 66 -46 c40 -28 72 -44 81 -40 21 8 20
20 -3 52 -22 33 -20 49 12 97 l26 38 5 -34 c3 -19 7 -56 8 -83 2 -37 8 -52 25
-63 19 -13 24 -12 55 20 22 22 40 55 52 94 13 43 23 60 32 56 31 -12 33 -104
3 -137 -5 -6 -9 -13 -9 -17 0 -11 75 9 141 36 69 30 88 31 84 8 -2 -10 -4 -21
-4 -25 -1 -4 -24 -29 -52 -56 -28 -27 -50 -54 -48 -60 3 -6 30 -3 74 8 39 11
87 19 108 19 45 1 49 20 12 57 -40 40 -29 46 27 18 138 -70 281 -90 367 -53
42 19 43 20 25 34 -21 14 -39 14 -194 0 -67 -6 -80 -5 -113 15 -20 12 -35 26
-32 31 3 4 34 17 68 27 99 30 224 18 292 -28 39 -26 44 -25 55 6 9 24 14 26
54 21 25 -3 63 -11 85 -18 23 -7 43 -10 46 -7 3 3 -2 24 -10 47 -15 44 -11 65
19 90 12 10 14 2 13 -58 -1 -38 2 -73 6 -77 3 -4 21 -7 39 -6 47 1 66 29 94
135 1 4 2 12 3 17 2 17 29 11 57 -13 38 -33 27 -64 -47 -137 -35 -34 -58 -64
-54 -70 15 -25 177 1 231 37 13 8 29 30 36 49 16 45 35 29 44 -37 4 -27 9 -51
13 -53 3 -2 45 13 94 34 48 21 87 36 87 33 0 -3 -18 -25 -40 -49 -22 -24 -40
-53 -40 -64 0 -19 2 -20 34 -6 l34 14 32 -44 c35 -49 28 -54 -31 -23 -23 11
-42 19 -43 17 -2 -2 -11 -23 -20 -48 -10 -25 -20 -51 -23 -57 -9 -23 17 -14
44 15 l26 27 -7 -30 c-3 -16 -9 -43 -12 -60 -3 -16 -7 -36 -9 -42 -2 -7 6 -25
19 -40 l23 -27 -39 -33 c-45 -37 -55 -39 -85 -18 -18 13 -22 13 -27 0 -3 -10
3 -17 18 -21 24 -6 37 -26 77 -119 l21 -50 15 32 c15 29 14 33 -6 61 -11 17
-21 32 -21 35 0 3 18 8 40 12 66 11 85 34 106 127 25 114 24 108 29 248 6 185
-21 298 -103 423 -41 63 -47 68 -73 63 -31 -6 -38 1 -45 41 -8 41 -13 44 -52
27 -36 -14 -75 -18 -309 -29 -119 -5 -175 -15 -236 -40 -38 -16 -39 -15 -58 9
-24 30 -74 48 -137 47 -64 0 -107 15 -135 49 l-24 28 -17 -61 c-10 -34 -24
-69 -32 -79 -14 -15 -20 -14 -77 12 -69 31 -212 76 -271 86 -21 3 -48 8 -60
10 -11 2 -41 7 -66 10 -25 3 -56 8 -70 10 -37 7 -320 15 -320 9z m1068 -179
c34 -17 72 -61 72 -83 0 -11 -4 -11 -21 -2 -19 10 -124 12 -257 6 -24 -1 -42
2 -42 9 0 12 43 53 80 76 31 20 125 16 168 -6z m302 -85 c0 -4 -20 -14 -45
-23 -43 -16 -45 -16 -45 2 0 10 8 20 18 23 26 6 72 5 72 -2z m341 -27 c1 -8 2
-22 3 -32 0 -11 7 -26 15 -36 19 -23 11 -27 -26 -11 -32 14 -51 50 -40 78 7
18 47 19 48 1z m-1461 -12 c0 -5 -9 -17 -20 -27 -19 -18 -20 -17 -20 2 0 11 3
23 7 26 9 10 33 9 33 -1z m-120 -12 c0 -5 -24 -25 -54 -44 -30 -19 -57 -39
-60 -45 -12 -19 -23 -12 -19 12 3 16 23 34 61 55 61 34 72 37 72 22z m990 -34
c24 -2 57 0 72 5 25 7 27 6 19 -10 -16 -30 -35 -40 -76 -42 -43 -1 -155 8
-196 17 -13 2 -47 5 -74 5 -44 0 -51 3 -51 21 0 19 4 20 131 14 71 -3 150 -8
175 -10z"/>
<path d="M5190 6474 c-8 -2 -31 -5 -50 -8 -52 -9 -67 -21 -51 -40 11 -13 9
-17 -13 -27 -37 -17 -22 -29 22 -17 53 14 89 38 102 66 12 27 11 29 -10 26z"/>
<path d="M5929 6454 c38 -48 95 -82 151 -90 63 -9 42 15 -59 69 -101 54 -121
58 -92 21z"/>
<path d="M4343 6416 c-44 -16 -83 -55 -83 -83 0 -19 5 -23 28 -23 15 0 34 6
43 13 20 15 59 77 59 95 0 14 -4 14 -47 -2z"/>
<path d="M4750 6424 c0 -36 67 -68 117 -55 37 10 39 26 4 29 -16 1 -48 9 -71
17 -48 17 -50 17 -50 9z"/>
<path d="M5343 6367 c-45 -29 -82 -58 -83 -65 0 -7 -10 -27 -22 -43 l-23 -31
23 -19 24 -19 -66 -73 c-69 -76 -137 -139 -189 -172 -25 -15 -28 -21 -14 -23
23 -5 143 76 196 133 23 25 58 69 77 97 l35 51 -21 22 -20 21 64 52 c68 56
120 82 161 82 27 0 32 9 13 28 -24 24 -72 11 -155 -41z"/>
<path d="M5790 6389 c0 -10 -9 -23 -20 -29 -25 -13 -26 -40 -2 -41 9 0 31 -2
48 -2 17 -1 38 -8 47 -16 15 -12 17 -11 17 4 0 18 -39 94 -49 96 -3 0 -14 2
-23 4 -12 2 -18 -3 -18 -16z"/>
<path d="M6215 6400 c-20 -4 -26 -8 -17 -13 6 -5 12 -24 12 -43 l0 -35 28 26
c15 15 39 33 55 41 15 8 27 16 27 18 0 7 -75 11 -105 6z"/>
<path d="M6461 6366 c-8 -10 -28 -13 -61 -11 -43 2 -50 0 -50 -16 0 -21 28
-39 60 -39 25 0 55 27 64 58 8 25 4 28 -13 8z"/>
<path d="M5930 6357 c0 -9 142 -111 188 -134 25 -13 57 -23 71 -23 25 0 24 2
-19 44 -53 52 -146 103 -201 112 -21 4 -39 4 -39 1z"/>
<path d="M6507 6341 c-6 -23 1 -35 30 -50 38 -19 52 -14 44 16 -5 17 -18 32
-38 40 -28 11 -31 10 -36 -6z"/>
<path d="M4759 6320 c-17 -11 4 -21 60 -27 31 -3 51 -1 56 7 4 6 5 14 2 17 -9
8 -105 10 -118 3z"/>
<path d="M4934 6297 c-23 -12 -53 -32 -68 -43 -30 -25 -36 -49 -8 -35 9 5 37
18 62 29 25 11 56 32 69 46 23 24 23 26 5 26 -10 0 -38 -11 -60 -23z"/>
<path d="M5387 6252 c-75 -82 -55 -110 23 -33 29 28 36 41 31 60 -6 22 -8 21
-54 -27z"/>
<path d="M4430 6240 c0 -13 63 -70 77 -70 7 0 13 -4 13 -9 0 -17 31 -21 78
-10 51 12 117 38 111 43 -2 2 -47 6 -100 9 -67 3 -108 11 -137 25 -23 11 -42
17 -42 12z"/>
<path d="M5567 6238 c-9 -7 -17 -20 -19 -28 -2 -12 10 -14 67 -11 39 1 84 9
102 16 17 7 34 11 37 7 3 -3 6 -1 6 5 0 22 -166 31 -193 11z"/>
<path d="M6470 6190 c0 -5 6 -10 13 -10 7 0 37 -20 66 -45 58 -49 71 -54 71
-27 0 19 -41 61 -78 81 -26 14 -72 14 -72 1z"/>
<path d="M5404 6160 c-22 -9 -54 -65 -54 -96 0 -15 3 -15 24 5 24 22 62 89 54
96 -1 1 -12 -1 -24 -5z"/>
<path d="M4420 6124 c0 -13 8 -28 18 -33 18 -9 62 -88 62 -110 0 -27 30 -8 39
26 11 38 7 53 -12 53 -7 0 -25 18 -41 39 -35 48 -66 60 -66 25z"/>
<path d="M5964 6090 c-12 -5 -24 -18 -27 -29 -4 -18 -1 -21 26 -21 18 0 64
-13 103 -29 39 -16 90 -31 114 -35 24 -3 45 -8 48 -11 3 -2 11 7 19 21 17 33
17 39 -1 25 -12 -10 -23 -7 -53 12 -77 48 -190 81 -229 67z"/>
<path d="M5377 6026 c-21 -13 -52 -36 -69 -52 -38 -36 -92 -114 -79 -114 12 0
169 147 182 171 12 23 12 23 -34 -5z"/>
<path d="M6446 6025 c-10 -7 -15 -19 -11 -25 9 -14 154 -110 166 -110 15 0
-27 73 -58 100 -25 22 -68 51 -75 50 -2 0 -11 -7 -22 -15z"/>
<path d="M5815 5995 c-17 -16 -25 -35 -25 -60 0 -40 -1 -41 -55 -15 -22 10
-42 17 -44 15 -6 -6 49 -68 83 -93 52 -39 104 -63 111 -51 8 11 -13 69 -24 69
-4 0 -16 6 -26 14 -19 14 -19 14 3 33 13 10 22 31 23 48 4 73 -6 81 -46 40z"/>
<path d="M6312 6003 c2 -9 22 -24 46 -34 l42 -18 0 22 c0 17 -9 26 -33 35 -45
16 -59 15 -55 -5z"/>
<path d="M5235 5991 c-44 -27 -108 -97 -112 -121 -3 -19 2 -17 39 12 60 47 75
63 93 97 18 36 19 36 -20 12z"/>
<path d="M5408 5963 c-76 -66 -146 -149 -136 -159 3 -2 33 11 68 31 34 19 64
35 66 35 3 0 15 10 27 23 13 12 34 30 47 39 l25 17 -23 7 c-19 5 -22 12 -18
30 4 13 4 24 2 24 -3 0 -29 -21 -58 -47z"/>
<path d="M4875 5975 c-22 -8 -41 -15 -42 -15 0 0 1 -9 4 -19 4 -16 9 -18 36
-10 30 8 57 33 57 51 0 11 -8 10 -55 -7z"/>
<path d="M4802 5853 c0 -22 -4 -49 -10 -59 -7 -13 -7 -25 -1 -37 20 -35 6 -70
-41 -104 -64 -46 -124 -102 -117 -110 4 -3 16 6 28 20 29 38 61 34 104 -10
l36 -38 -5 50 c-3 34 1 58 12 80 9 16 15 33 14 36 0 4 7 14 17 24 18 15 20 15
25 -2 3 -11 4 -50 2 -87 -5 -68 5 -116 24 -116 5 0 10 18 10 39 0 22 13 69 30
107 17 37 34 88 37 112 l6 44 -27 -17 c-28 -19 -106 -37 -106 -25 0 4 11 20
24 35 25 28 26 45 3 45 -6 0 -23 12 -38 26 l-28 27 1 -40z"/>
<path d="M5412 5863 c-17 -6 -46 -63 -32 -63 18 0 70 30 70 40 0 6 1 13 3 17
3 8 -24 12 -41 6z"/>
<path d="M5012 5726 c-36 -88 -58 -175 -56 -216 5 -87 5 -87 18 -35 7 28 28
84 46 125 35 78 47 150 33 187 -7 19 -13 10 -41 -61z"/>
<path d="M5162 5757 c-6 -7 -20 -34 -31 -60 l-20 -47 32 -16 c18 -9 34 -18 36
-20 2 -2 -21 -43 -51 -91 -113 -179 -147 -258 -149 -348 -3 -84 -5 -81 64 -94
105 -21 125 -43 133 -149 3 -37 10 -83 16 -102 10 -30 12 -32 18 -15 4 11 8
52 8 90 0 39 1 82 1 98 l1 27 63 -6 c51 -5 65 -3 77 10 11 15 10 19 -11 33
-13 9 -55 46 -94 82 -38 37 -75 71 -82 78 -7 6 -22 14 -32 18 -17 5 -16 8 10
34 38 38 48 80 24 98 -27 19 -31 17 -65 -32 -17 -25 -35 -45 -40 -45 -19 0 30
103 100 211 68 104 80 139 47 139 -7 0 -24 11 -37 25 -22 23 -22 25 -6 49 25
39 15 66 -12 33z"/>
<path d="M6197 5639 c-21 -3 -50 -12 -65 -19 -15 -7 -42 -20 -60 -29 -35 -17
-78 -54 -92 -81 -6 -11 1 -36 21 -77 29 -60 52 -78 80 -63 8 5 34 11 59 14 67
8 190 35 214 48 40 20 66 51 73 87 9 47 5 70 -18 102 -17 24 -23 26 -96 25
-43 0 -95 -3 -116 -7z"/>
<path d="M5498 5613 c-23 -6 -32 -42 -25 -95 11 -83 103 -141 273 -173 11 -2
29 -4 41 -4 21 -1 21 -3 7 -28 -19 -37 -18 -53 4 -53 39 0 85 145 68 214 -8
33 -42 55 -94 60 -23 2 -76 20 -119 39 -80 37 -125 48 -155 40z"/>
<path d="M7581 1666 c-24 -29 -34 -181 -16 -253 5 -22 10 -25 36 -19 101 20
154 161 87 233 -40 43 -89 61 -107 39z"/>
<path d="M4608 1373 c-4 -7 -3 -77 1 -109 0 -7 20 -20 44 -29 82 -33 105 -29
83 13 -18 33 -123 136 -128 125z"/>
<path d="M4710 1140 c-15 -9 -6 -42 18 -63 9 -8 41 -25 70 -36 l52 -21 0 23
c0 27 -24 63 -52 78 -35 19 -75 27 -88 19z"/>
</g>
</svg>
