<?xml version="1.0" encoding="utf-8"?>
<!-- Generator: Adobe Illustrator 22.0.1, SVG Export Plug-In . SVG Version: 6.00 Build 0)  -->
<svg version="1.1" id="Layer_1" xmlns="http://www.w3.org/2000/svg" xmlns:xlink="http://www.w3.org/1999/xlink" x="0px" y="0px"
	 viewBox="0 0 1000 1000" style="enable-background:new 0 0 1000 1000;" xml:space="preserve">
<style type="text/css">
	.st0{fill:#FFCD00;}
</style>
<rect class="st0" width="1000" height="1000"/>
<g>
	<g>
		<path d="M423,79.9c29.4,3.3,60.8-10.5,88.7,3.4c-2.1,2.9-4,6.1-5.9,9.1c3.9,3.5,7.2,7.9,6,13.4c7.6-1.2,0.4-9.5,1.1-14.6
			c1.6-0.7,4.7-2.2,6.3-2.9c8.3,8.3,19.4,13.1,31.2,12.8c-3,5.5-5.1,12.6-11.4,15.2c-5.5,2.6-10.8-2-16.3-1.6
			c-3,3.8-5.7,7.9-7.1,12.6c-4.9-0.4-7.4-4.2-8-8.6c-5.1,7.2,6.5,10.6,6.7,17.4c-1,1.7-2,3.5-3,5.3c9.9-4.4,8-19.1,19.5-21.1
			c-0.7,6.2-2.4,13.6-9.5,15.1c-3.9,9,11.9,21.5,13,7.5c-1.9,0.6-5.6,1.8-7.5,2.4c-2.4-5,1.6-10,2.3-14.9c2.2,1.2,4.4,2.4,6.7,3.3
			c0.1-4-0.2-7.9-1.2-11.8c12.1-2,3.1,10.7,4.5,17.3c1.6-0.8,4.8-2.5,6.4-3.3c1,10.6,3.2,23.3-4.7,31.8c-0.7,0.6-2,1.7-2.7,2.3
			c2.5-4.9-2.7-8-4.9-11.7c-0.4,1-1.3,3.1-1.7,4.2c-6.9,0.9-6.8-10.1,0.3-8.2c0.5-4.2-5.5,0.2-7,0.7c-0.6-1.9-1.6-3.4-3-4.4
			c-1.7,6.9-10,4.6-8.7-2.4c1.5,0.3,4.5,0.8,6,1.1c-0.3-1.2-0.8-3.5-1-4.7c-5.4-1-7.1,4.6-8.1,8.6c-5-3.4-3.7-10.5-7.7-14.7
			c-3.9,6.9,4.9,23.2-8.7,16.1c1.6-2.1,3-4.2,4.5-6.3c-4.2-6.5-13.6,0.1-3.7,2c-0.3,1.3-1,4-1.3,5.3c5.3,5.8,11.3,12.5,8.3,20.9
			c1.1,0,3.3,0,4.3,0c2.1-3,3.8-7.6,8.6-6.1c1.2,4.4-1.4,7.2-5.1,9c0.5,1.3,1.1,2.6,1.6,3.9c2.3-2.3,4.5-5.1,7.9-5.7
			c-1.1,6.3-4.4,11.9-5.3,18.2c5.1-0.7,7.4-5.5,9-9.8c3.2,7.7,9.1,14.7,16.5,6.3c1.4,0.1,4.2,0.3,5.6,0.4c-0.2-5.2-0.3-10.4,0-15.6
			c1.3,8.3,5.7,9.3,10.7,3.2c4.1,4.9-0.3,11.6,2.3,17.2c4.7-6,9.2-0.8,11.6,3.8c2.5-8.9,0.8-18.1-1.9-26.8c7.3,3.3,5.8-5.3,7.5-9.6
			c6,0.6,7.5,7.9,9.1,12.8c11.2-0.2,16-10.3,17.7-20c0.7,0.6,2,1.9,2.7,2.5c9.2,2,22,7.6,19,19.3c1.8-2.5,4.3-3.8,7.4-3.6
			c0.3,4.1,0.4,8.3,0.5,12.4c2.4,2.3,5.4,2.5,8.7,1.9c-5.7,3.8-8.6,15-14.9,15.1l-1.1-0.8c-6.9,0.7-9.8,9.8-13.8,14.8
			c-2.8-1.1-5.5-2.4-8.4-3.2l-0.1-1.6c-4.5-0.4-8.2,1.6-11,5c0.8,0.8,2.4,2.3,3.2,3c0.7-0.1,2-0.2,2.6-0.3c1.8-2.5,4.2-4.1,7.3-4.8
			c-1.7,6.9-0.3,15.6-5.9,21c-2.4,0.1-4.9,0.3-7.3,0.4c1.7-2.6,3.7-5.2,3.4-8.5c-11.1-0.8-23.2,12-15.2,22.5
			c-6.6-2.9-13.8-2.6-20.8-2.8L558,249c-5.3,0.8-6-3.4-7.8-7c-5.4-3.1-0.6,8.9-5.9,6.3c-5.1-3-17.6-9.9-18.8-2
			c9.2,1.1,16.7,9.5,16.4,18.8c-4.8-2.9-8.4-18.5-11.9-7.4c0.2,6.4-6.4,8.4-10.6,3.9c9.3-8.7-11.4-4.8-15-12.7
			c-1.2-5.5,0.2-7.6,4.3-6.2c-0.2-2-0.6-4-1.3-5.9c-2.9,0.1-5.9-0.1-8.7-0.5c1,6.6-5.6,9.6-11.1,9.1c0-4.4,0.6-8.7,2.8-12.6
			c-1.4-0.2-4.2-0.5-5.7-0.6c-5-2.5-9.6-5.6-14.1-8.8c3.8-2.3,3.5-6.4,3.3-10.4c6.7-0.3,3.5,6.9,4.4,10.7c3.1-0.7,6.2-1.4,9.3-1.9
			c-0.4-2.4-6.4-5-2.9-7.2c1.6,0.6,4.7,1.7,6.3,2.3c2.6-12.9-10.4-20-21.5-15.9c2-2.4,3.9-4.8,5.7-7.2c-1.5-0.5-4.5-1.7-6-2.2
			c-5-2.6-10.2-5.7-12.7-11c4.7-0.8,8.2,2.5,11.9,4.6c-4.8-5.2-11.5-12.2-5.5-19.1c4.3,0.9,8.4,2.5,12.9,2.4
			c2.2,4.9,1.3,10.5,2,15.6c9.9-6.1,0.8-29.2-9.3-20.3c-2.7,3.8-6.9-0.2-10.2,2.1c1.5-5.2-1.4-10.5-6.6-11.5
			c-0.8,4.6,1.8,7.7,5.4,10.1c-4.8,5-3.4,14.4-12,15.1c8.9,3.4,13.7,12,14.8,21.1c-3.1,1.4-6.3,2.5-9.6,3.1c0-2.9,0.1-5.8,0.1-8.6
			c-1.1-0.2-3.2-0.6-4.2-0.8c2.2,7.7-3.2,9.6-7.5,13.2c6.8,3.3,11.8,9.4,13.4,16.9c-1.5-0.1-4.5-0.4-6-0.6c0.5,3.9,1.4,7.8,1.9,11.8
			c-7-8.5-14.6-16.6-23.4-23.4c0.3,0.7,0.9,2.2,1.3,2.9c1.1,3.2,3.6,6.3,2.4,9.9c-5.8-0.1-6.3-8-11.9-8.7c-0.6,2.8-0.2,5.5,1.2,8
			c-1.5,1.8-3.2,3.3-4.9,4.9c-1.8,1.6-3,3.6-3.5,5.9c-3.4,0-6.7-0.7-9.6-2.6c0.5,3.6,1.8,6.9,3.3,10.2c-4.9,2.7-10.7,2.2-16.1,1.7
			c-0.5-0.5-1.5-1.5-2-1.9c-0.5,1.3-1.4,4-1.9,5.3c2.8,2.4,5.9,4.4,9,6.4c-2.8,0-5.6,0.1-8.4,0.2c-1.8,1.4-3.7,2.7-5.6,4
			c-1.7-1.7-3.4-3.3-5.2-4.9c-0.1,2.2-0.2,4.4-0.3,6.7c6.4,1.3,12.9,0.2,19.4-0.3c1.7-1.4,3.4-2.7,5.2-4.1
			c-3.5-14.5,19.6-1.1,18.6,8c-5-3.4-10.3-6.4-16.6-6.2c-0.8,1.4-1.5,2.8-2,4.4c1.8,1.1,3.4,2.5,4.7,4.3c-2.2,0.1-6.7,0.2-9,0.3
			c1.6,1.4,4.8,4.2,6.5,5.6c-7.6,3.1-9.9-4.8-15.8-6.3c-2.9,5-4.9,10.4-7.4,15.7c10.5-0.3,10.4,12.5,15.7,18.7
			c1.4-0.9,2.8-1.8,4.3-2.7c0.2-0.7,0.7-2.2,0.9-2.9c-1.6,0-4.7,0.1-6.2,0.1c-2.5-4.3,2.7-6.9,4.3-10.2c-2-0.2-6-0.6-7.9-0.8
			c0.9-2.4,2.7-7.3,3.5-9.7c7.4-1.1,6.1,6.7,7.1,11.2c1.2-2,2.3-4,3.5-6c2.4-1.6,5.7-3.6,3.5-7.2c5.4,0.4,11,0,15.7,3.2
			c-10,1.3-13,12-12.3,20.5c2.6-0.1,5.1-0.1,7.7-0.2c5.2-1.7,11.9-5.2,8.6-11.8c5.4,2.9,16.3,9,9.7,15.8c-4.9,4.9-5.8-5-8.9-6.8
			c-3.4,5,1.4,11.4-1.9,16.5c-2.9,6-9.6,8.6-15.3,11.3c3.8,6.8-1.5,11.2-5.3,16.2c14.5,2.8,15.8-14.7,23.9-20.8
			c5.6,6.4-3.7,11.5-8.1,14.9c4.2,3.5,3.4,10.6-2.3,11.8c-1,4.9-1.5,9.8,0.6,14.6c-3.3,7-5.9,14.4-9,21.5c4.2,0.1,6.6-3.5,9.4-6
			c-0.7,7.1,0.7,14.3-1.3,21.3c6.1,0.6,11.7-2.3,17.7-2.5c2.5,11.7,12.6,18.8,19.2,28c-2.5-11.5,7.8-19.6,9.6-30.4
			c10.1,5.5,21.9-0.2,29.5-7.5c6,7.7,11.8-4.9,18.2-6.4c0,1,0,3,0.1,4c-2.4,1.2-4.8,2.4-7.1,3.6c-3.1,1.6-6.4,3-9.5,4.5
			c-9.6,3.8-19.5,6.8-29.6,9c2.5,5.3,8.9,6.8,11.5,12c-2.2-0.2-4.4-0.4-6.6-0.6c-1.9-1.3-3.8-2.5-5.7-3.8c-10.6,3.6-5,13.9-4.1,21.6
			c-3.2,0.1-6.3,0.1-9.5,0c0.2,0.8,0.5,2.5,0.7,3.3c1.3,0.8,3.9,2.3,5.2,3.1c3.5-2.8,5.8-6.8,9.1-9.9c1.1-0.1,3.3-0.2,4.4-0.3
			c-0.7,2.3-1.5,4.6-2.2,6.9c0.8,2.2,1.7,4.5,2.5,6.8c-3.8,1.6-7.8,2.5-11.9,2.3c3.6,12.7-14,22.9-2.4,34.4c0.7,8.5-11.1,18-1.5,25
			c2-7.3,8.6-10.9,15.4-12.7c-0.2,1.3-0.4,3.9-0.6,5.1c-1.4,0-4.1,0-5.4,0c-1.7,2.5-7.2,3.8-4.9,7.5c1.4,0.1,4.2,0.3,5.6,0.3
			c-0.3,3.2,0,6.4,0.7,9.5c0.6,0.3,1.8,1,2.4,1.4c-7.8,0.7-0.1,9.9-4.5,14.3c4.6,6,6.9,13.5,13.7,17.5c-1.6,4.9-8,6.2-8.6,11.4
			c2.9-1.2,5.9-2.4,9.2-2.3c0.6,4-1.7,7.1-4.2,9.8c7.2-0.9,13.7,2.5,18.1,8.1c2.2-0.4,4.4-0.8,6.6-1.4c2.8-0.6,5.6-1.1,8.3-1.9
			c2.1-0.5,4.2-0.9,6.4-1.4c7-2.3,14.1-4.3,21-6.6c2-0.7,4-1.4,6-2.1c1.6-0.4,3.2-0.8,4.8-1.2c2.4-0.9,4.8-1.8,7.2-2.7
			c2.1-0.6,4.1-1.2,6.2-1.9c4.6-1.3,9.2-2.7,13.7-4.2c8-2.1,16.1-4,24.1-6c4.5-0.6,9.2-1,13.6-2.2c12.3-1,24.7-1.1,37,0
			c3.2,1.1,6.6,1.5,9.9,1.9c4.5,1.7,9.2,2.6,13.8,4.2c3.6,1.7,7.1,3.4,11,4.3c15.5-24.4,0-52-0.9-77.8c-4.6,5.6-6.8,13.9-14.5,16.2
			c13.5-21.2,9.1-50.2-9.2-67.1c6.9,4.1,12.1,10.9,20,13.3c0.9-3.4,2.3-6.6,3.9-9.7c-0.6-1.7-1.7-5-2.3-6.7
			c15,1.2,3.7-10.6,4.9-18.9c0.6,0.4,1.8,1.3,2.4,1.7c3.6,1.7,7.4,3.7,11.6,3c-2.9-3-7.2-5.4-6.1-10.4c3.9,0,7,2.4,10.1,4.4
			c-2.5-5.5-4.1-10.5-5.8-16.7c4.3-4.3,6.2-10.3,10.1-14.9c-9.6-6.3-1.8-14.9,1.6-22.7c-3.1,0.1-6.1,0.2-9.1,0.2
			c-3.5-2.6-4.6-6.3-1.6-9.8c9.6-13.6-18.1-25.2-7.5-37.1c-4.4-2.7-10.4-4.9-8.4-11.3c-4.3,0.1-8.5,0.3-12.8,0.2
			c0.5-4.9,7.1-3.5,8.3-8.1c-2.2,0.3-4.2,1-6.1,2.1c-1.5,0-4.6,0.1-6.1,0.2c-2.5-1.5-5.1-2.9-7.7-4.4c0.3-1.1,0.8-3.3,1.1-4.3
			c-3.2,2-6.7,4.1-10.6,3.1c5.1-5.5,11.5-9.5,17.1-14.6c-10.3,0.8-16.9,12-27.8,10.3c-3.3-6.9,4-21.9,11.5-13.5
			c-4.5,0.8-8.8,3.1-8.6,8.5c10.9-0.4,18.4-12.5,20.4-21.5c-1.7,0.8-5,2.3-6.7,3.1l0.5-4.7c-1.3,0-3.9-0.1-5.1-0.1
			c-4.3-3.7-9.6-5-15.1-3.5c-3.2-5.5,8.7-12.3,1.1-14.6c-2.9,5-6,10-9.6,14.6c-1-0.6-2-1.3-3-1.9c5-8,12-14.5,18.3-21.3
			c-0.5-0.9-1.5-2.8-2.1-3.8c-3.1,3.5-6.1,10.9-11.7,7.6c-6.9,6.5-6.2-11.5,0.4-5.8l2,0.8c0.2-0.2,0.7-0.6,1-0.8
			c6.5-4.2,10.8-10.7,14.9-17c11.3,1.4,16.7,16.1,27.2,20.9c-1.8,2.9-3.3,6-5.8,8.4l1.8-7.2c-1.3,0.4-3.9,1.3-5.2,1.8
			c-2.6-3.7-5.2-8.5-10.6-4.9c1.6-3.2,2.9-6.5,3.8-9.9c-1.3-0.6-4-1.9-5.3-2.5c-2.6-0.1-5.2-0.2-7.7-0.3c-0.6,1.5-1.9,4.5-2.5,6.1
			c-1,3.2,3.2,3.2,5.2,3.8c1.9,3.2,5.2,4.3,8.8,4.3c-3.7,2-9.2,3-9.7,8c1.1,0.1,3.2,0.2,4.2,0.3c0.6-3.3,3.8-4.8,6.1-6.9
			c0.6,2.7,0.5,6,3.4,7.4c-1.6,1-3.2,2-4.8,3c-2.1,2.3-4.1,4.8-6.2,7.2c2.8,1,5.7,2,8.6,2.6c-1.7-2.3-3-4.9-3.2-7.8
			c4.7-1.6,8.9,0.3,12.9,2.7c-0.2-1.8-0.5-5.4-0.6-7.2c6.1,1.9,12.4,2,18.8,2c-7.5,12.5,9.1,11.2,15.6,16.7
			c-7.5,12.8,13.7,17.5,19.4,26.4c6.3,4.9-6.2,6.8-3,11c2.3-0.9,4.7-1.7,7.2-2.2c-3.6,8-0.9,19,8.5,21.2c-1.4,8.3,8.7,16.2,2.3,23.9
			c3.2,3.4,5.5,7.5,7.2,11.9c0.8,16.3-14.6,25.4-22,38c1.3,2.7,3.4,3.7,6.5,3l0.1,1.5c5-0.1,9.9-0.1,14.9-0.4
			c-14.1,9,18,29.4-2.9,35.3c-1.6,6.8,11.3,10.9,10.7,1.3c1.5,3,4.2,5,7,6.6c-5,3-10.4,6.7-12.4,12.5c-0.2,5.7,4.5,16.2-4.4,17.1
			l1.1,4.4c3.9-1.7,7.9-2.6,11.6,0c0.2,0.9,0.5,2.7,0.6,3.6l-2.6-0.2c0.6,6.4-3.9,11.1,0.5,17.3c-6.4-1-5.1,6.2-7.2,9.9
			c-1.2,7.7,4,13.7,7.7,20c-1.5,0.8-4.5,2.4-6,3.2c-3.1-0.3-6.1-0.7-9.1-0.9c0,1.1,0,3.4,0,4.5c4.2,0.2,8.5,0.2,12.2,2.6
			c-0.6,1-1.9,3.1-2.5,4.1c6.7,1.9-2.7,8.7-5.9,7.2c-0.3,4.9-0.8,9.9,0.9,14.7c-2.4,1.8-2.9,4.8-3.4,7.6c-0.3-0.6-0.9-1.8-1.2-2.4
			c-2.2-0.1-4.3-0.2-6.5-0.3c0.9,1.8,1.9,3.5,2.9,5.3c-0.5,0.9-1.5,2.7-2.1,3.6c1.3,2,2.5,4,3.7,6.1c-2,3-3.5,6.3-5.2,9.5
			c1.9,8.9-13.1,14.4-3.1,22.4c-3.9,6.8-0.9,14.8,2.7,21l-1.5,1.2c1.6,0.3,4.8,1,6.5,1.3c-1.3,0.7-2.7,1.5-4,2.3l1.3,2.9
			c-0.9,0.2-2.8,0.5-3.7,0.7c3,5.5-2.2,10-3.7,15c-2.5-1.9-4.9-3.8-7.4-5.7c0.3,3.6,1.9,6.8,3.3,10c-5-0.2-6.9,4.3-7.6,8.4
			c-1,0-2.9,0-3.8,0c-1.7-3.5-2.6-7.3-3.5-11.1c-6-0.5-3.6,15.1-11.3,6.8c0.5,12.7-15.6,20.4-10.5,33.9c-1.9-0.4-5.6-1.3-7.5-1.8
			c-4.3,2.5-6.8,6.9-9.3,11c2.7,0.4,5.4,1.2,7.9,2.4c2.8,0.3,5.5,0.5,8.3,0.5c1.8-1.5,3.6-3,5.5-4.5c-0.8,1.9-1.9,3.7-3.1,5.4
			c5.5,19.6,23.3,32,41.1,39.7c3.3,1.4,6.7,2.7,10,4c5.9,2.2,11.8,4.2,17.7,6.1c2,0.6,4.1,1.3,6.1,1.9c2,0.6,4.1,1.2,6.1,1.8
			c10,3.2,19.9,6.5,29.8,10c14.9,6.1,30.3,13,41.1,25.5c-7-4.7-14.8-7.1-23.1-7.6c-9.3-0.5-18.7-0.4-27.8-2.4
			c0.9,2.3,1.7,4.6,2.6,6.9c1.3,0.2,3.8,0.6,5.1,0.8c-12.7-2.5-19.1,10.7-28.3,16.7c-5.9,4.7-13.7,3.9-20.5,5.8
			c4.9,3.8,16.1-0.3,12,9.6c-3-1.2-6.1-2.4-9-3.8c-1.3,0-4,0-5.3,0.1c1.6-4.3,0-8.4-1.5-12.5c-5.6,7.1-10.3-7.6-16.8-2.9
			c-8.2,7.8-17.8,18.6-13.7,30.9c-1.2,0.1-3.7,0.2-4.9,0.2c-3.9,3.7-3.6,8.4-0.1,12.2c-1.9-0.4-5.6-1.1-7.5-1.5
			c12,17.8-11.3,34.6-28,31.7c7.2,3.5,15.3,3.3,23,4.9c3.6,15.3-10.7,24.6-22,31.1c-0.9-11.6,12.4-17.1,15-27.1
			c-14-5-29.1-3.5-43.4-7c10.9-10.5,25.5-15.4,39.2-20.9c6.5-33.4,9.6-67.7,9.5-101.6c-11.2,6.4-4.7,23.5-14.5,29
			c-1.4-4.7,0.5-9.1,2.1-13.4c-7.9,1.9-2.8,12.2-4.8,17.8c-1.1,0.3-3.2,0.9-4.4,1.2c8,11.3-2.5,24,1.3,36.1
			c-12.8,5.8-13.4,24.6-27.8,28.2c-0.1-7.5-0.2-15.1,5.8-20.6c-3.4-1.2-5.9,1.6-8.7,2.7c-0.3-4,0.3-7.9,3-11
			c1.6,0.8,3.3,1.7,4.9,2.5c2.2-21.1,12.7-39.8,21.6-58.5l-3.1,0.1c0.6-3.2,1.2-6.3,1.9-9.5c-2.6-1.9-5.2-4.2-4.3-7.7
			c2.7,1.9,4.1,7,8.3,5.2c-6.4-7.1-4.7-16.3-6-25C628,786.6,610.2,862.8,563,923c3.4-7.1,7.2-14,9.1-21.7c-6.2-5.6-6-14.6-7.6-22.1
			c-2.8-18.1-6.1-38.6-21.1-50.9c-2.4,2.2-5,4.4-7.6,6.4c-0.8,10.5,4.8,19.9,5.8,30.2c-6.5,1.7-6.8-4.3-7.9-8.9
			c-0.4-0.1-1.3-0.2-1.8-0.2c-4.2,9.4,2.5,18.7,2.3,28.3c-11.7,4.6-4.2,23.4-2.3,33.1C474.4,852.9,420.9,785,369.3,715.9
			c-6.3-7.7-10.8-17.1-18.9-23.3c2,4,5.1,7.2,7.9,10.6c3,5.1,5.7,10.9,2.6,16.7c-3.8,6.5,16.9,10.9,6.8,13.9
			c8.9,15.3,28,27.7,24.7,47.7c2.4-1.5,5.4-2.5,6.8-5.1c3.2,9.1,7.1,18.3,7.2,28.1c2.9-4.3,8-2.2,12.2-2c-9.7,4.3-1.4,12.8,1.3,18.9
			c-0.7,1.5-1.5,3-2.2,4.5c-0.9,0.1-2.6,0.3-3.4,0.4c-3.1-3.2-4.3-7.7-6.1-11.7c-5.1-4.7-10.3,0-9.9,6.1c-4-6.2-9.5-11-15.7-14.9
			c-2.3-3.9-3-8.5-3.9-12.9c-12.1-0.6-18.8-13.6-27.5-20.7c-5.8-4.8,0.3-11.5-3.6-16.6c-6.7,6.4-5.5,16.5-4.3,24.8
			c5.8,28.8,19.9,55.2,24.7,84.2c16.5,0.1,33-0.1,49.4,0.1c-11,14.8-27.7,23.4-44,30.9c7.7,13.3,26.3,9.6,38.5,16
			c-15.8,5.8-31.5-4.9-47.3-5.7c2.3-14.8,18.2-18.3,29.1-25c-8.5-2.4-17.1-4.9-25.9-5.6c-6-14.2-14.6-28.1-27.9-36.4
			c-2-0.9-3.9-1.8-5.8-2.8c1.9-1.3,3.9-2.5,5.8-3.8c-0.9-1.7-2.7-4.9-3.6-6.6c-4.2,1.7-6.7,5.7-9.7,8.8c-2.7,0-5.3-0.1-7.9-0.1
			c12.4-9.6-6.7-17.5-10.6-26.6c-9.9,8.1-1.6,29.3-15.8,33.1c0.3-3.5,0.8-6.9,1.3-10.2c-2.9-0.8-5.9-1.6-8.8-2.4
			c1.5,6.2,6.3,12,3.7,18.7c-2.3-1-4.7-2.1-7-3.1c-0.8-0.5-2.2-1.5-3-2c8.2,10.9,12.3,24.9,9.8,38.5c-2.9-0.1-5.9-0.1-8.8-0.3
			c-20.8-5.5-16.7-33-5.4-45.7c-6.1,0.3-12-1.1-17.6-3.3c-6.7-3-13.1-6.6-19.9-9.5c3.2-4.5-0.7-5.3-4.1-6.3
			c-14.2-2.8-30.3-13-44.2-6.4c-4-4.1-9.5-4.6-15-4.1c2-2.2,4-4.3,5.9-6.4c-0.7-0.6-2.2-1.8-3-2.4c-6.8,6.6-6.6,16.4-7.9,25.1
			c-5.5-13.9,3.2-27.8,14.5-35.4c19.1-13.4,41.4-21.3,61.5-33.1c9.6-5.2,19.2-10.4,28.6-16c17.1-10.7,35.4-22,45.7-40
			c5.5,16.2,11.4,32.4,15.5,49c0.7,4.7,1.7,9.3,3,13.8c4.7-5.6-3.4-12.1-0.8-18.2c1.6,0,4.9,0.1,6.6,0.2
			c1.1-14.2-7.3-27.4-16.6-37.5c0.7-4.6,1.1-9.2,1.3-13.9c-1.9,0.8-3.7,1.6-5.7,2.3c2-6.5,7-11.2,11.5-16.1
			c-1.9-1.2-3.8-2.5-5.8-3.8c-2.5-1.3-5.1-2.5-7.7-3.6c3.5-4.7,7.7-21.5-1.7-13.4c2.7-6.1,0.1-12.5-0.7-18.6c-1,0.7-3.1,2.2-4.1,3
			c-2-2.9-4-5.8-7.1-7.6c2-3,4.6-5.7,5.1-9.3c-2.1,2-4,4.1-5.6,6.5c-1.7,0.1-3.4,0.2-5.1,0.3c-1.1-2.4-1.7-5-2-7.6
			c-2.3-2.7-4.8-5.1-7.4-7.5c1.9-3.6,3.5-7.5,2.7-11.6c-2.2,1.4-4.3,3-6.3,4.7c-2.8-4.1-13.6-15.6-2.1-14
			c-8.3-5.4-8.2-18.3,0.9-22.7l0-1.1c3.4,0.2,6.3-1.8,9.3-3.2c-1.2-0.2-3.7-0.7-4.9-1l0,1.8c-5.3,0.5-8.3,5.5-12.2,8.4
			c4.1-12.8-7.9-23-6.2-35.7c-1-0.7-3-2-4-2.7c-0.3-5.5,4.8-16.9-3.2-18.3c-0.2-3.5,2-8.4-2.1-10.5c0.4-1,1.2-3.1,1.6-4.1
			c-2.1-3.4-7.5-5.6-6.1-10.3c-5.6-5,2.2-10.5,3.3-15.5c3,0.3,3.7-1.8,3.6-4.3c-1,0-3,0.1-4,0.1c-0.2-4.8,2.4-9.9-1-13.9
			c7.7-1.2,4.8-10.6,2.8-15.6c-4.2-13.4-15.2-27.2-9-41.7c1.6-4.2-0.1-12.8,6.8-11.8c0.1-0.8,0.3-2.3,0.4-3.1
			c-2.1-1.7-4.1-3.4-6.4-4.7c1-7-7.6-11.2-6.4-18.4c1.6-8.6,13.2-12.1,12.1-21.8c-4.1-4.4-2.4-8.7,4.1-7.4
			c-0.4-36.9,15.8-71.7,39.1-99.6c4.2-3.4-1.2-7-3.5-9.3c6.9,0.7,4-5.7,3.5-9.4c19-10.4,5.1-40.1,23.8-50.3
			c20.6-14.6,25.5-42.2,45-57.8c18.5-3.1,29-25.3,49.7-22.1C422.6,84.8,422.8,82.4,423,79.9z M521.1,101.6c2.3,2.7,4.9,5.3,8.2,6.7
			c0-2.4,0.1-4.8,0.2-7.3C526.7,101.1,523.9,101.3,521.1,101.6z M503.7,103c-0.2,1.4-0.6,4.1-0.9,5.5c-2,0.2-3.6-0.6-5-2.2
			c0.6,4-0.6,9.5,4.9,9.7c-2.7-5.1,4-4.9,5.7-2c0-3.5,0-7.1-0.2-10.6C507.1,103.3,504.8,103.1,503.7,103z M474,156.3
			c4.4,6.6,10.1,12.2,16.7,16.6c2.9-0.3,5.4-1.7,7.9-3.1c-3-1.8-5.9-3.9-7.8-6.9C483.8,170.6,481.6,154.1,474,156.3z M604.1,171
			l-0.8-0.7c0.1,1.4,0.4,4,0.5,5.4c-8.3-3.1-11.2,8.5-16.5,11.8c-2.1-4.8-7.1-6.3-11.9-6.6c0.6,0.6,1.8,1.9,2.4,2.5
			c-0.3,5.1-2.9,9.6-4.5,14.3c5.4-1.4,4.3-10.9,11-9.3c4.1,2.2,2.6,7.6,3.8,11.4c10.3-6.8,9.4-26.8,23.8-26.7
			c-0.2-2.3-0.3-4.7-0.5-7.1C608.6,167.2,606.3,169,604.1,171z M611,182.2c5.1,3.2,9.6-3.3,9.4-8C615.6,174.1,613.8,179.2,611,182.2
			z M605.9,180.5c-1.7,4.5-0.2,9,0.6,13.6c-1.2,0.1-3.6,0.3-4.8,0.3c-0.3-1-0.9-3.1-1.2-4.1c-2.4,3.4-4.6,7.1-4.8,11.3
			c4.5,0.5,3.8-4.5,5.2-7.2c2.3,1.9,1.6,5,0.4,7.3c3.7,1.5,6.4,5.8,10.9,5.1c-1.9-4.1-4.4-7.9-6.3-11.9c1.3-0.2,3.8-0.8,5.1-1
			c4.9-1.6,10.1-3.2,13.2-7.7c-2.7,0.5-5.3,1.2-7.8,2.4C611.7,187.6,608.8,184,605.9,180.5z M492.6,181.1c-0.9,6,3.7,11.3,1.8,17.2
			c3.6,1.2,5.7,4.6,8.4,7.1c-0.3-2.9-0.6-5.8-1-8.8c1.6,0,4.8,0,6.4,0c0.2-4.2,0.5-8.4,0.5-12.6c-5.9-0.1-3.3,6.5-4,10.1
			c-3.3-0.9-2.5-4.2-3-6.8C498.5,185.5,495.9,182.8,492.6,181.1z M547.7,194.5c0.9,0,2.7-0.1,3.7-0.1c0.9-2.9,3.4-5.6,2.5-8.9
			C549.5,186.5,549.2,191.2,547.7,194.5z M436.2,201.6c4.9-1,6.2-7,7-11.3C438.8,192.4,435.6,196.5,436.2,201.6z M521.8,209
			c-1.3-0.7-3.9-2.1-5.2-2.8c-0.8-0.5-2.5-1.6-3.3-2.1c0.3,5.4,4.2,9.2,7.5,13.1c0.5-0.6,1.5-1.9,1.9-2.4c0.9-0.4,2.7-1.2,3.7-1.6
			c4.6,0.3,10-1.6,5.6-6.2c-7.8,6.4-5.6-6.6-7.2-11.2C522.6,199.8,522.3,204.5,521.8,209z M551,202c-1,6.2,3.9,14.9,11.2,12.1
			c-2.1,1.6-8,9.7-3,10.5c3.5-3.8,11.5-14,0.6-10.8c-0.1-3.3-0.2-6.6-0.3-9.9C554.2,211.1,556.6,202.1,551,202z M539.9,206.1
			c-5.2,4.5,0,10.3,5.2,11.2c0.7-3.3,1.4-6.6,2-10c-1,1.3-3.2,3.8-4.3,5.1C541.9,210.3,540.9,208.2,539.9,206.1z M436.1,212.9
			c-0.7,0.9-2.2,2.6-2.9,3.4c1.1,0.3,3.2,0.8,4.3,1.1c2,2.2,4.1,4.3,6.4,6.3C444.6,219.4,441.5,211.2,436.1,212.9z M526.3,238.8
			c3.2,0.3,6.4,0.4,9.6,0.4c2.1,1.2,4,2.4,5.9,3.9c6-7.1,14.3-15,11.2-25.3C544.5,225.4,532.4,228.7,526.3,238.8z M646.3,226
			c2.5,0.5,6.1-3.2,5.5-5.6C649.1,219.9,644.9,223.1,646.3,226z M553.4,241.8c0.3,1.4,1,4.3,1.2,5.7l2.2-1.8l2.6,4.1
			c0.4-2.2,0.8-4.5,1.1-6.7C558.7,242.8,555.1,242.2,553.4,241.8z M416.2,306.1c-8.3,2.3-23.7-4.8-26.7,5.3c3.7-1,7.3-2.7,11.2-3.1
			c0.4,4.2-0.2,8.4-0.3,12.7c2.2-0.9,4.4-1.9,6.6-2.8c-6-10.6,10.8-4.3,11.7-13.6C418.1,304.9,416.8,305.7,416.2,306.1z
			 M379.8,321.4c-1.8,1.6-6.6,1.6-5.2,5.1c1.5-0.3,4.5-0.8,6-1.1c-1.5,2.1-3,4.2-4.5,6.4c1,0,3,0.1,4,0.1c2.7-3.3,4.4-7.2,4.3-11.5
			C382.8,320.7,381.3,321.1,379.8,321.4z M395,346.2c-0.9,4.2-5.1,4.1-8.5,4.4c-1.7,1.6-2.7,3.6-3.2,5.8c1.3,0,4,0.1,5.3,0.2
			l-0.3-1.9c2.4,0.3,4.9,0.6,7.1,1.8c-2.2,3.3-0.1,6.3,1.6,8.8c1-1.9,1.9-3.8,2.8-5.7c-4.5-2.2-4.8-7.3-1.3-10.6
			C397.9,346.7,396.7,345.8,395,346.2z M352.7,368.8c0.9,4.2,6.5,5.1,5,10.3c0.2-0.8,0.8-2.3,1-3.1c3.5-0.2,6.8-1.2,10-2.5
			c-0.7-4.7-5.3-3.4-8.6-3.8l0.1-2.8c2.2-0.9,3.3-2.6,3.3-5.2C359.9,364,356.3,366.3,352.7,368.8z M396.4,386.1c0,1,0.1,2.9,0.2,3.9
			c3,0,6-0.1,9-0.2c0.4-1,1.2-3,1.6-4C403.7,385.8,400,386,396.4,386.1z M377.9,433.5c-8.4-0.5-1.2,10.1-3,14.9
			c9.3-2.4,8.6-9.9,5-17.2C379.5,431.8,378.5,432.9,377.9,433.5z M691.3,438c-0.6,2-1.3,4-1.9,6c3.2,4.9,9,4.6,14.1,3.8
			c-1.6-3.2-3.8-6.4-7.9-6.2C694.2,440.4,692.8,439.2,691.3,438z M717.3,442.7c0.4,0.9,1.2,2.6,1.6,3.5c1.1-0.2,3.3-0.5,4.3-0.7
			c0.2-2.7,0.1-5.5-0.1-8.2C720.7,438.4,719,440.5,717.3,442.7z M450,440.6c2.2,4.5-1.9,7.3-4.1,10.6c1.1,0.1,3.3,0.2,4.3,0.3
			c4.7-1.8,3.7-7.8,1.7-11.3C451.5,440.3,450.5,440.5,450,440.6z M696.4,465.1c-2.5,0-2.7,2.3-3.4,4c2.1,0.4,4.3,0.8,6.4,1.2
			c-1.5-3.6-0.4-6.1,3.4-7.5c1.5,3.8,3.4,7.7,8.1,7c0.7-0.9,2.2-2.6,2.9-3.5c-1.2-0.2-3.5-0.6-4.6-0.8c-0.9-1.8-1.7-3.5-2.6-5.3
			C702.8,460.2,696.8,459.7,696.4,465.1z M400.7,469.8c0,1-0.1,2.9-0.1,3.8c4.2-2.2,6.9,1.7,9.7,4.2c0.1-1.9,0.1-3.7,0.2-5.6
			C407.6,469.9,404.2,469.5,400.7,469.8z M443.5,476c3.2,0.1,6.5,0.2,9.7,0.2c0.3-3.2-1.8-5.6-4.5-6.9
			C446.9,471.5,445.2,473.7,443.5,476z M583.2,551.1c-4.1,0.4-8.2,0.6-12.2,1.8c-4.1,0.4-8.3,0.8-12.4,1.2c-3.1,1-6.4,1.6-9.5,2.4
			c-7.1,3.9-16,6.7-19.2,14.9c-6,11.6-0.7,25,6.7,34.6c2.2-1.3,4.4-2.5,6.6-3.8c12.4-2.4,25.6,1.4,37.7-3.2
			c0.5-4.4,0.4-8.8,0.4-13.1c3.6-1.3,7-3.1,10.4-4.9c6.7-4.9,14.6-9.6,23.3-7.5c1.7,1.4,3.4,2.9,5.1,4.3c0-3.3,0.1-6.5,0.3-9.7
			c3,2.5,10.2,1.6,9.9,6.7c-4.6-0.9-4.7,2.3-4.7,5.4c2.5-0.7,5-1.6,7.4-2.7c1.8,1.3,3.7,2.5,5.5,3.8c1.3,0,3.8,0,5,0
			c0.9,3.2-2.8,10.7,4.1,8.7c0.6-3.7-0.9-9.5,4.6-9.5c-0.8,4.6-3.5,8.6-3.7,13.4c3.8-6.6,10.4-4.7,16.4-3.9
			c1.9-9.4,1.1-20.3,8.7-27.3c-1.8-3.4-1.9-7.3-1.8-11.1c-5.2,0-10.3,0-15.5,0c-0.3,2.8-0.7,5.7-1.1,8.5
			c-7.6-6.5-16.6-11.2-26.2-13.9c-2.7-0.7-5.3-1.2-7.8-2c-3.4-0.6-6.8-1-10-2.4C601.5,542.7,593.5,550.8,583.2,551.1z M426,563.6
			c2-0.9,3.9-1.8,5.9-2.6c1.8-3.2,3.3-6.6,4.6-10C431.9,553.4,426.1,557.9,426,563.6z M515.3,570.4c0.1,1.2,0.2,3.8,0.2,5
			c5.4-3.8,13.8-4.8,14.8-12.7C524.3,562.7,519.8,567,515.3,570.4z M482.2,585.5c0.1,1,0.2,3,0.3,4c2,2.7,4.6,4.5,8.2,3.7
			c-1.6-2.6-3.2-5.2-4.9-7.7C484.9,585.5,483.1,585.5,482.2,585.5z M498,613c0.9,0.2,2.8,0.4,3.7,0.6c2.5-4.8,6.8-9.2,6.5-14.9
			C504.4,603.1,500.7,607.7,498,613z M542.1,610.9c3.2,0.9,6.4,2.2,9.6,3.3c0.9-2.5,1.9-4.9,2.8-7.4
			C550.9,609,541.4,604.5,542.1,610.9z M497.6,637.1c2.9,0,5.9,0,8.8-0.1c-1.8-2.6-3.7-5.2-5-8.1C500,631.5,498.6,634.2,497.6,637.1
			z M671,645.8c-0.4-4.8,3.4-12.5-2.6-14.8C661.9,634.1,665,643.9,671,645.8z M659.3,638.6c-0.4,6.1-0.6,12.6,2.6,18
			c1,0.3,3,0.9,4,1.2C664.4,651.2,664.6,643.6,659.3,638.6z M464.3,659.8c4.3-4.8,6.1-11.3,5.6-17.7
			C466.9,647.6,462.9,653.4,464.3,659.8z M649.7,661.5c-3,9.7,2.9,18.8,2,28.5c-1.1-0.7-3.2-2.3-4.3-3.1c-1.4,3.6-5.8,3.2-7.8,0.3
			c-10.1,4.7-18.8,13.6-30.3,14.3c-0.1-4.4,0.3-8.7,0.3-13.1c-1.5,1.7-2.9,3.3-4.3,5c0.4,3,0.9,5.9,1.3,8.9
			c-2.5,0.5-5.1,1.1-7.6,1.8c-4.8,0.3-9.6,0.2-14.4-0.2c-11-2.7-21.6-7-32.6-9.8c1.4-4.9,3.9-9.4,3.9-14.6c-2.2,2.7-4.2,5.5-6.4,8.2
			c-4.1-5.9-6.5-1.2-7.1,3.5c-12.1-3.5-18.4,11.3-30.3,9.3c0-0.8,0.1-2.6,0.1-3.4l2.4-0.1c-3.8-11.9-18,2.1-27.1-3.5
			c-4.7-0.2-9.4-0.2-14.1-0.1c1.7-5.7,8.8-13.3,4.1-18.9c-3.9,4.7-6.7,11.9-14.1,10.7c2,4.1,7.1,6.3,7.2,11.4
			c-6-0.2-13.3,6.8-11-4.3c-1.4,0.5-4.3,1.6-5.7,2.1c-2.8,0.6-5.6,1.2-8.3,2c-5.4,0.6-10.9,0.6-16.3,0.2c-3.5-1.3-7-2.9-9.2-6
			l0.6,1.8c-4.2,1.6-8.3,3.6-12.5,5.5c8.9,6.1,18.6,14.2,30,13.1c2-3.6-0.3-11.6,5.6-11c0.4,6.6,1,13.1,1.5,19.7
			c-6.6-1.7-13.1-3.9-19.5-6.1c-14.5-3.5-29.8-15.7-44.1-5.8c-1.6,0.6-3.2,1.2-4.9,1.8c-3.4-4-7.1-8.1-12.3-9.7
			c21.7,39.3,53.2,72.6,90.1,98c2.4,1.8,5.2,3.2,6.6,6c-4.3,1.4-8.7,0.7-12.5-1.5c-0.6-0.6-1.8-1.8-2.4-2.4
			c12.1,36.2,46.7,58.4,65.3,90.8l2.4-0.2c7.3-30.5,11.3-66-4.8-94.4c-4.9,4.6-3.8,11.5-4.8,17.5c-3.3-6.3-4.6-21.9-15-17.5
			c5.5-20.4,21.6-35.8,28.1-55.7c6.1-1,12.3-4.7,18.4-0.3c6.9,5.3,15,2.2,19-4.8c14.6,23.2,27.5,47.3,41.4,70.9
			c-8.9,0.2-9.8-11.8-15.2-16.9c-7.4,6.4-11.8,16.1-11.7,25.9c-0.7,21.4,12.8,39.8,15.6,60.5l1.8,0.2c17.8-25,27.5-54.3,39.9-82
			c-9.5,0.8-15.7,9-23.4,13.6c9.9-16.9,24.1-30.7,34.8-47c12.3-17.7,19.8-38.8,20-60.5c-6.6,9.1-18.2,4.9-27.4,7.1
			c-1,0.6-2.9,1.8-3.8,2.4c1.7-5.7,7-8.9,11.4-12.3c4.2-1.9,8.3-4,12.3-6.3c4.2-1.3,8.5-2.7,12.4-4.7l-5.3,0.6
			C654.6,678.6,650.7,670.5,649.7,661.5z M659.6,664.8c1.4,3.2,1.1,7.6,4.6,9.4C663.1,670.8,665.2,663.4,659.6,664.8z M527.2,754.4
			c-4.5-0.9-4.2,4.4-4.8,7.3c-1.3,20.6,5.7,40.5,5.9,61c10.1-0.5,20.5,3.1,30.3-0.6c-2.8-20.1-0.5-41.5-8.6-60.5
			C546.3,752.7,535.3,749.9,527.2,754.4z M394.3,786.3c3.3,4.5,1.3,10.9,5.6,15.1c3.8-5.5,0.9-12.3-2.7-17.1
			C396.5,784.8,395.1,785.8,394.3,786.3z"/>
	</g>
	<g>
		<path d="M545.1,119.5c7.2,0.7,10.7-8,18.1-6.4c3,8.5,0.7,17.6-4.6,24.6c11.9,0.2,10.6-15.4,19.5-19.6c0.6,15.1-3.4,31.1-11.9,43.5
			c-1.5-4.5-0.7-9.1-0.4-13.7c-11.8-1.6-9.5,14.4-3.4,19.4c-3.1-1.3-6.5-1-9.7-0.5c-1.2,1.8-2.5,3.6-3.8,5.4
			c-0.8,1.2-1.6,2.4-2.4,3.6C546.9,157.3,557.2,136.3,545.1,119.5z M551.9,124.2c1.7,7.3,10.6-0.8,8.1-5.6
			C557.2,120.4,554.6,122.4,551.9,124.2z"/>
	</g>
	<path d="M583.1,127.5c9,0.6,2.3,15.1,2.1,21.9c-3.8-1.4-4.4-7.1-7.9-9.4C579.9,136.1,585.6,133.2,583.1,127.5z"/>
	<path d="M594.3,137.5c2.1-0.7,2.9,0.6,2.3,3.9c7.1,9.9-8.8,14.1-11.4,22.1c3.3,2.1,6.9,3.3,10.8,3.2v4c-3.4,0.2-6.8,0.3-10.2,0.2
		c-6.4-4.7-3.8-13.8-1.7-20c0.9,0.1,2.8,0.3,3.7,0.4c1.2-2.8,3.1-3.5,5.8-2.2c1-0.9,3-2.7,4.1-3.6c-2.2-1.5-6.2-2.9-6.6,2.6
		c1.2-3.7,0.4-6.7-2.3-9.2C590.1,138.7,592.9,137.9,594.3,137.5z"/>
	<path d="M503.7,153.8c7.8,3.3,16.6,5.9,22.6,12.1c-1.2,1.1-3.6,3.2-4.9,4.2c-4.9-7.8-14.4-3-21.3-7.3
		C501.3,159.9,502.6,156.8,503.7,153.8z"/>
	<path d="M531,174.4c0.6,0.7,1.9,2.1,2.5,2.8c0.9,4,2.2,8,3.2,12C530.7,189.3,529.4,179.2,531,174.4z"/>
	<path d="M562,183.8c0.9-1.1,1.7-2.1,2.6-3.1c1.5,3.4,2.9,7,4,10.6c-1-0.1-3.1-0.4-4.2-0.6C563.6,188.4,562.8,186.1,562,183.8z"/>
	<path d="M443.6,204.9c5.3,0,10.1,2.6,15,4.3c-1.3,1.9-2.6,3.8-3.9,5.8C451.8,210.7,448.9,206.2,443.6,204.9z"/>
	<path d="M609.9,227c2.9-3.1,5.9-6.7,10.6-6.8c-2.1,2.4-3.7,6.2-7.8,5c1.2,3.6,4.2,7.4,0.8,10.8c4.4,3.3,2.1,8.8,2.1,13.4
		c2.5-1.5,4.9-3.1,7.2-4.9c2,0.2,6,0.7,8,0.9c-2,2.7-4,5.4-5.9,8.1c4.6-0.1,8-3.4,9.8-7.4c-2.1-0.6-4.1-1.3-6.1-1.9
		c-0.4-1.9-0.8-3.8-1.2-5.7c0.8,0.2,2.5,0.7,3.3,1c4.1,3.7,8.2,5.3,13,0.6c-2.4,9.6-18.5,13.5-13.6,25.1
		c-8.5,2.2-12.8-6.9-19.1-10.5c-1.4,0-4.3,0.1-5.7,0.1C606.6,245.4,604.9,235.4,609.9,227z"/>
	<path d="M460.4,222.7c5.8,6.1,11.9,12.5,14.4,20.8c-8.3-2.3-10.2-15.3-19.9-12.6c-0.8,0.6-2.3,1.9-3.1,2.5
		C451.3,227,460.9,229.2,460.4,222.7z"/>
	<path d="M463.6,220.8c1.7,0,5,0,6.7,0c-2.7,5.2,1.6,8.3,5.1,11.2C469.9,230.7,465.8,225.7,463.6,220.8z"/>
	<path d="M425.8,228.3c3.9-1.5,8-2.2,12.2-2.2c-2.8,5.3-12,12.5-0.2,7.1c0.3,0.7,0.9,2.1,1.2,2.9c-2.5,1.6-4.8,3.4-7,5.3
		c-1.2-0.8-3.7-2.5-4.9-3.3C427.2,234.7,426.5,231.4,425.8,228.3z"/>
	<path d="M419.9,240.6c4.1,2.7,8.6,5,13.7,3.9c2.3-1.4,4.7-2.8,7-4.2c-0.6,3-0.1,6.1,0.3,9.2c4.2,2.8,8.2,5.8,12.3,8.9l-1.7,1.4
		c2.5,0.3,4.9,0.7,7.3,1.2c-2.9-3.9-5.9-7.8-9.5-11.2c9.8-3.3,21.2,19.1,5.6,12.2c0.3,2,1,6,1.4,8c-2,0-4,0.1-6,0.1
		c-0.2-2.1-0.3-4.2-0.5-6.3c-5.9-5.2-13.8-11.1-10.2-20.1c-3,2.7-4.4,6.1-4.1,10.2C431.2,248.2,421.3,249,419.9,240.6z"/>
	<path d="M452,242c4.6-1.8,9.6-0.2,14.4-0.9c-1,2.7-1.9,5.3-2.9,8c-0.4-0.6-1.3-1.9-1.7-2.5c-3.4-0.2-6.7-0.3-10.1-0.4
		C451.8,245.1,452,243,452,242z"/>
	<path d="M585.5,253.4c3.6-3.3,6-8.8,11.2-9.4c-2.7,4.3-6.4,8-8.6,12.7C587.2,255.5,586.3,254.4,585.5,253.4z"/>
	<path d="M467.2,246c5.6-0.7,9.8,4,10.4,9.2c0.8-0.2,2.5-0.6,3.3-0.7l-0.1,3.8c-3.9-0.1-7.8,0-11.7,0.1c0.2-0.9,0.5-2.7,0.7-3.6
		c1.4,0.1,4.1,0.4,5.5,0.5C474.9,250,467.5,251.2,467.2,246z"/>
	<path d="M418.1,252.5c3.6-0.9,6.2,1.9,9,3.6c3.8,0.7,7.5,1.6,11.3,2.6c-2.1,5.9-11.8,16-0.9,18c3.3,0.1,6.3-1.4,9.4-2.5
		c-2.6,4-5.3,8.4-9.5,10.9c-5.1-0.1-9.4-4.2-14.7-2.8c1.5-5.7,0-13.3,5.3-17.3C429,259.2,420.7,257.2,418.1,252.5z"/>
	<path d="M485.8,255.2c3.6,2.9,6,7.3,6.6,11.9c-0.7-0.7-2.1-2-2.9-2.6C483.6,266.5,485,258.6,485.8,255.2z"/>
	<path d="M563,259.9c1.7-1.3,3.5-1.5,5.3-0.7c0,3.2-0.5,6.4-1.5,9.5c-6.8,2-12.7-2.1-17.9-5.9C553.9,263.5,558.6,262.1,563,259.9z"
		/>
	<path d="M573.1,256.8c5.8-4.2,5.5,4.2,7.6,7.3c1.4-0.5,4-1.6,5.4-2.2c-1,5.5-7.4,6.3-11.8,7.1C574.8,265,578.2,259.7,573.1,256.8z"
		/>
	<path d="M602.4,258.6c0.5,0.3,1.6,1,2.1,1.3c1.7,2.1,2.3,5.5-0.6,6.8c-1.1,0-3.3-0.1-4.4-0.2C600.6,263.9,601.5,261.2,602.4,258.6z
		"/>
	<path d="M410,290c2-2.7,4.2-5.3,6.3-8c1.3,2.5,2.3,5.2,3.2,7.9C417.2,290,412.4,290,410,290z"/>
	<g>
		<path d="M474,300.5c11.5-0.2,23.1-0.4,34.4,1.6c4.1,0.3,8.2,0.7,12.1,1.8c3.3,0.5,6.7,1,10,1.9c9.6,2.4,19.2,5.5,27.8,10.5
			c0.8-0.7,2.3-2,3.1-2.6c1.9-4.2,2.9-8.8,3.6-13.3c2.2,4.4,6.6,6.6,11.2,7.9c7.4-0.2,16.7-0.8,20.4,7.2c3.5-1.2,6.9-2.6,10.4-3.9
			c15-3.4,30.5-0.9,45.5-3.6c2.2-0.9,4.5-1.7,6.7-2.5c0.8,3.1,1.5,6.1,2.3,9.2c1.3-0.4,4-1.2,5.3-1.6c19.3,20.7,18.9,53.1,11,79.2
			c-0.2,7.2-8.9,6.6-13.8,8.6c1.7,2.2,3.4,4.4,5.2,6.5c-1,1.8-2.1,3.7-3.1,5.5c-4.6-5.1-3.1-16.4-11.7-16.6c0.2-0.8,0.5-2.3,0.6-3
			c5.5,6.4,10.9,0.4,14.9-4.2c-8.6-4.9-1.6-13.2-1.6-20.4c-2.4,2.1-3.4,6.7-7.3,6.2c1.4-3.9,3.1-7.7,4.9-11.4
			c3.6,1.1,6.3,4.4,10.5,3.9c-2.3-3.1-5.1-5.9-6.3-9.6c-2.2,1.3-4.6,2.4-7,3.2c-0.7-5.4,3.8-8,7.3-11c0.3-0.9,0.9-2.6,1.3-3.5
			c-2.3,1.4-4.7,2.5-7.1,3.6c-4.2,1.6-8.2,3.5-12.4,5c-0.7-4.6,0.3-11-4.8-13.2c0.7,4.9-2.5,8-6.5,10.2c-2.1,0.6-4.1,1.3-6.1,2.1
			c-4.9,0.8-10,1.3-14.8,0.1c3-6.7,11.6-8.9,13.3-16.5c1.3-4.6-10.3-8.6-8.1-6.3c-2.5,5.3-2.2,18.6-13.4,15.8
			c-2.1-5.2-1.6-10.5,0-15.8c-2.8,0.9-4.2,3.5-5.9,5.8c0.6,3.4,1.8,6.6,3,9.8c-6.1,0.3-13.6-5.3-19-1.5c-0.4,6.9-5,1.2-7.5,0.2
			c-7-3-14.6-3.6-22.1-2.9c-4.5,1.4-9.2,2.4-13.4,4.6c2.4,1.7,4.9,3.3,7.4,4.9c4.2,0.1,8.3,0.1,12.5-0.2c4.7-1.8,9.8-1,14.7-1.2
			l0.1,1.9c0.6,0,1.9,0,2.6,0c-2.3,1.2-4.7,2.3-7,3.5c-14.2,2.9-27.8-2.4-39.7-9.6c-0.3,4.5,5,6,6,10c-3,0.2-5.9,0.4-8.9,0.6
			c-4.5,1.7-9.1,3.5-14,3.2c2.8-6.3,12.1-8.5,11.3-16.5c-8.1,0.9-14.8,6.8-23.1,6.6c3.9-4.9,6.1-12.9-0.4-16.7
			c-2.6,6.8-3.3,16.1-11.4,18.8c-7.8-2.3-1.7-13.4-5.7-18.6c-1.8,3.8-6.2,7-5.1,11.7c2,2.7,6.5,5.4,0.8,7.3
			c-4.7-2.7-8.8-6.2-13.5-8.8c1.5-3.1,4.3-5.2,7.1-7c3.1-1.1,6.4-2.7,6.3-6.5c-4.7,2-9.4,4.2-13.3,7.4c-0.4,4.9-0.3,9.8,1.9,14.3
			c-6.7,0.9-5.1-12.3-13.6-7.6c1.8,3.5,4.3,6.4,7.1,9.1c-0.3,1.3-1,3.8-1.4,5.1c-3.5-2.4-5.8-6-8.3-9.4c-1.9,1.2-3.7,2.4-5.6,3.5
			c-0.5,7.5,2.3,15.7,11.7,16.9c-7.7,3.6-11.1-4.1-15.7-7.9c0.2,0.9,0.5,2.8,0.7,3.7c1.1,2,3.7,3.6,3.8,6c4.5,1.3,11.8-1.3,13.7,4.4
			c-6.3,0.1-12.7,0.1-19-0.2c-4.5-7.9-10.5-17.6-3.8-26.2c-1.9,0.6-3.7,1.3-5.6,2c-4,0.7-8.9,5.3-12.4,0.8c-8.8,11-0.1,27.1,8,36.4
			c-15.5-3.6-22-24.5-12.2-36.7c0.8,0,2.5,0.1,3.3,0.1c-4.3-13,13.9-14.2,21.3-20.3c7.7-5.3,13.2-13.1,16.9-21.6
			c0.6,0.7,1.8,2.1,2.4,2.7c3.7-0.6,7.2-1.8,10.8-2.9C476.5,306.9,475.2,303.7,474,300.5z M566.2,316.6c-4.6,2-8.7,5.1-11.3,9.6
			c10,0.8,20.1-1.2,30.1,0.4c0.8,0.6,2.4,1.9,3.2,2.5C588,318.3,575.1,314.5,566.2,316.6z M602.1,326.7c-0.2,1.1-0.5,3.2-0.7,4.3
			c3.8-1.3,8-2.2,11.2-4.8C609.1,325.8,605.6,326.1,602.1,326.7z M639.9,328.5c-0.1,1.3-0.2,3.8-0.3,5.1c2.1,3.2,4.9,5.6,9,5.1
			c-0.7-0.9-2.1-2.8-2.8-3.7c-0.2-2.3-0.3-4.6-0.4-6.9C643.5,328.3,641.7,328.4,639.9,328.5z M496.1,330c-1.3,1.8-1.7,3.7-1.1,5.8
			c2.5-1.6,3.9-3.8,4.2-6.5C498.4,329.5,496.9,329.9,496.1,330z M555.3,334l-0.1,3.7c6.4,0.3,12.9,0.5,19.1,2
			c7.2-0.5,19.2,4.3,21.5-5.4c-4.9,0.6-10,2.5-14.7,0.4C572.6,333.8,563.9,333.6,555.3,334z"/>
	</g>
	<path d="M507.9,356.7c2-4.3,8.7-2.6,12.7-4.3c-0.4,2.7-2,4.8-3.9,6.7c-1,0.5-2.9,1.5-3.9,2c-2.4,1.2-5.2,1.3-7.8,1.4
		c1.8-1.3,3.5-2.5,5.3-3.8C509.7,358.1,508.5,357.2,507.9,356.7z"/>
	<path d="M590.9,351.7c6.9,2.4,13.1,6.3,19.4,9.8c0.5,0.6,1.5,1.9,1.9,2.5C603.8,363.9,595.2,359.1,590.9,351.7z"/>
	<path d="M425.8,368.8c-0.4-7.3,7.2-10.8,13.3-11.3C437.4,363.6,433.3,370.8,425.8,368.8z"/>
	<path d="M475.3,357.3c2.7,0.6,5.3,1.3,7.8,2.5c2.5,0.3,5.1,0.7,7.6,1C486.3,365.1,476,364,475.3,357.3z"/>
	<path d="M526.4,368.8c5.3-3.6,10.8-7,16.2-10.4c5-1.4,7.7-0.2,8.2,3.7c-10.9-2-17.3,8.1-25.3,13.1c1.4,1.4,2.8,2.8,4.3,4.2
		c-6.3,11.3-15.9,21.7-27.6,27.2l-0.4,1.4c-1.1-0.2-3.2-0.5-4.2-0.7c11.9-6.3,19.9-17.1,29-26.5c-1.8-1.3-3.6-2.6-5.4-3.9
		C523.6,374.6,526.5,372.5,526.4,368.8z"/>
	<path d="M579.6,359.5c1,0.2,2.9,0.5,3.8,0.6c1.7,3.4,4.8,6.5,4.6,10.6c-0.7-0.5-2.1-1.6-2.9-2.1c-3.3-0.3-6.6-0.6-9.8-0.8l0.2-3
		C578.5,364.5,579.9,362.7,579.6,359.5z"/>
	<path d="M619.2,360.2c4.5-0.4,9.1-0.4,13.6,0.2c-4.6,1.8-8.6,4.6-11.8,8.4c0.1-1.4,0.3-4.2,0.3-5.6
		C620.9,362.5,619.8,361,619.2,360.2z"/>
	<path d="M644.8,364.8c0.8-0.8,2.3-2.4,3-3.2c-0.4,6.6-7.2,11.7-12.5,5.8c0-0.7,0.1-2.2,0.1-2.9
		C638.6,364.6,641.7,364.7,644.8,364.8z"/>
	<path d="M592.9,364.2c2.6,0,5.2,0.2,7.7,1.1c3.9,2,7.9,3.9,11.7,6.1c3,2.7,6,5.6,8.4,8.8c-3,0-5.9-0.7-8.5-2.2
		c-1-0.6-3.1-1.8-4-2.4C603,372,597.7,368.5,592.9,364.2z"/>
	<path d="M651.5,364c0.6,0.5,1.8,1.4,2.5,1.8c4.8-1.1,3.8,3.6,4.5,6.6C654.1,370.9,648.3,370.1,651.5,364z"/>
	<path d="M475.7,367.6c4,0.1,8.1,0.3,12.1,0.5c0.2,5-8.7,1.1-12.1,2.2C475.7,369.6,475.7,368.3,475.7,367.6z"/>
	<path d="M483.2,378.6c4.3-5.6,11.1-9.6,18-10.7c-3.2,5.1-8.7,7.6-14.3,9.3C486,377.5,484.2,378.2,483.2,378.6z"/>
	<path d="M534.8,379c3.2-2.8,6.1-5.9,9-9c0.2,1.2,0.4,3.7,0.6,4.9c-2.5,2.1-5,4.3-7.2,6.7c-0.8,0.3-2.3,1-3,1.3
		C534.3,381.9,534.6,380,534.8,379z"/>
	<path d="M555,380.4c-0.6-6.9,8.8-5.9,13.4-5c2.9,0.3,5.8,0.7,8.6,1.2c-2.6,1-5.3,1.8-7.9,2.7C564.4,379.9,559.7,380.1,555,380.4z"
		/>
	<path d="M443.4,375.4c8.5,5.8,18.1,4.7,28.2,4.6c-3.1,3.6-8.4,3.6-12.7,4.7c-1.4,0.5-2.8,1-4.3,1.5
		C451.4,382,444.4,381.1,443.4,375.4z"/>
	<path d="M647.4,380.4c1.3-0.1,3.9-0.3,5.3-0.4c3.4,3.3,9.8,5.1,9.8,10.7c-1-0.2-3-0.7-4-0.9c-2.4-3.4-5.6-6-9.4-7.7l-1.8,0.1
		C647.3,381.8,647.3,380.9,647.4,380.4z"/>
	<path d="M535.2,394.7c-0.4-4.6,2.5-10.4,7.3-11.3C542.9,388.5,538.1,391.3,535.2,394.7z"/>
	<path d="M441.8,385.6c6.6-0.8,6.6,9,13.2,9.2c-1.5,2.4-0.1,8.9-4.4,7.7c-1.2-4-3-7.8-5.2-11.4C442.2,390.6,441.8,388.2,441.8,385.6
		z"/>
	<path d="M594.1,392.4c5.1-3.7,11-0.6,16.3,1c4.5,1.9,8.8,4,12.7,6.9c0.8-0.7,2.5-2.2,3.3-2.9c-1.2,2-2.4,4-3.5,6.1
		c-0.6-0.2-1.8-0.5-2.4-0.7c-2.2-0.4-4.3-0.9-6.4-1.3c-2-0.8-3.9-1.5-5.9-2.1c-2.4-1.1-4.9-2-7.3-3.1c-2.5-0.3-4.9-0.5-7.3-0.7
		C593.8,394.8,594,393.2,594.1,392.4z"/>
	<path d="M521.6,414.5c5.2-7.9,11.4-15.7,20.6-19.1C536,402.3,529.7,409.5,521.6,414.5z"/>
	<path d="M646.4,396.3c6.9,2.3,13,8.1,14.2,15.4c-5.8-4.4-12.7-7.4-17.9-12.6C643.6,398.4,645.4,397,646.4,396.3z"/>
	<path d="M583.1,399.2c0.7-0.3,2-1,2.6-1.3c1.3,5.3,1.2,13.6-6.6,12.7C579.6,406.5,578.2,401.1,583.1,399.2z"/>
	<path d="M631.1,398c1,0.2,2.9,0.4,3.9,0.6c1.2,0.6,3.6,1.7,4.9,2.2c0,1,0,2.9-0.1,3.9c-2.8-1.2-5.5-2.5-8.4-3.3
		C631.3,400.5,631.2,398.8,631.1,398z"/>
	<path d="M512.4,410.9c5-3.5,8.3-9.4,14.1-11.6c-1.7,7.2-9.2,10.5-14.1,15.3C512.4,413.8,512.4,411.9,512.4,410.9z"/>
	<path d="M526.9,420.2c3.9-8.9,13.5-15.9,20.1-21.7c-0.4,1.4-1.2,4.1-1.6,5.5c1.2,0.1,3.7,0.4,4.9,0.5c-3,3.2-8.1,4.9-9.4,9.4
		c8.2-1.6,4.2,3.6-0.2,4.9c-0.9,0.4-2.7,1.2-3.6,1.6c1.1-2.2,3.3-6.6,4.4-8.8C536.9,415,531.9,417.6,526.9,420.2z"/>
	<path d="M483.6,404.2c3-1.4,6.1-2.4,9.4-2.9c-0.6,3.5-3.2,5.2-6.7,5.3c-0.5,0.3-1.5,1-2,1.4C484.2,407.1,483.8,405.2,483.6,404.2z"
		/>
	<path d="M568.4,405.5c3.9,2.2,7.9,4.1,12,5.8c5,1.8,9.5,5.2,7.8,11.1c-0.7-0.5-2.1-1.5-2.9-2C578.5,417.2,572.2,412.3,568.4,405.5z
		"/>
	<path d="M480.5,410.9c1.7,1.7,3.3,3.4,4.9,5.2c0.7,0.1,2.2,0.4,2.9,0.5c-0.1,0.6-0.3,1.9-0.4,2.6c-2.1,1.3-3.6,3-4.7,5.3
		c4.9,0.1,10.2-0.3,13.2-4.8c2.5,11-9.6,19.2-6.3,30.5c-7.8-2.2-0.6-16.4-4.5-22.8c-2.3,1.6-3.4,4.2-3.9,6.9l-0.8,0
		c-0.5,1.2-1.6,3.5-2.1,4.7c0.6,3.2,1,6.5,1.4,9.8c-3.6-3.4-7.4-11.3-12.9-6.7c-1.3,1.6-2.7,3.2-4.1,4.8c2-10.5,24-12.5,15.2-23.8
		C480.6,419.3,480.3,415,480.5,410.9z"/>
	<path d="M504.4,419.3c6.5,12.8-8.3,24.3-7.4,37.7C492.1,443.9,500.7,431.5,504.4,419.3z"/>
	<path d="M511.6,435.3c1.2-4.7,2.8-10.1,7.1-13c0.2,2.8-0.7,5.1-2.9,6.7c1.1,4.2,4.8,5.9,8.5,7.4c-5.1,11.8-15.9,21.1-18.2,34
		c6.2-0.8,5.5-13.2,12.4-7.4c1,5.5-3.2,8.9-7.1,12c1,0.3,2.9,0.8,3.8,1c7.4,5.7,12.9,13.7,21.2,18.3c0.4,6.8-10.3,1.8-14.9,3
		c-0.5,7.6,1.2,15.6-1,23c-5.7-8.7,1.8-27.7-13.3-27.2c1.1-0.4,2.1-0.7,3.2-1c-4.4,0.2-8.8-0.2-12.7-2.4
		c-2.5-20.1,12-35.2,20.8-51.4C516.3,437.4,514,436.4,511.6,435.3z"/>
	<path d="M618.1,436.4c6.8-0.9,13.7-1.1,20.6-0.8c10.3,9.4,1.8,22.2-10.3,23.2c-2.7,0.6-5.5,1.1-8.2,1.6c-3.8,1.1-7.8,1.4-11.7,1.9
		c-5.8,4.5-8.7-7.5-11.1-11.6C600.5,442.8,610.3,439.1,618.1,436.4z"/>
	<path d="M548.2,439.7c8.3-4.2,18.2,5,26.9,7c17.2-1.6,13,17.9,6.3,27c-0.9-0.1-2.9-0.2-3.8-0.2c0.9-2.7,2.2-5.1,3.5-7.5
		c-3.3-0.3-6.6-0.6-9.7-1.5C559.2,462.9,542,454.9,548.2,439.7z"/>
	<path d="M604.2,552.2c2.7-0.8,5.3-2,8-3c-1.7,3.6-4,7-6,10.4c-0.8-2.5-2.3-4.2-4.5-5.4C602.3,553.7,603.6,552.7,604.2,552.2z"/>
	<path d="M611.5,717.5c-1.7-6.5,5.5-10.1,9.7-13.6c0.8,3.7-0.9,9.6,4.8,9.1c-0.3,3.5-6.6,2.6-8.7,4.8c0.2-1.5,0.5-4.4,0.7-5.9
		C615.9,713.8,613.8,715.8,611.5,717.5z"/>
	<path d="M471.3,706.1c6.6,5.3,4.8,15.4,11.6,20.9C476.6,722.2,467.6,715.2,471.3,706.1z"/>
	<path d="M447.2,712.2c2,0.6,4,1.2,5.9,1.9c1,0.7,2.9,2.1,3.8,2.7c2.7,0.1,5.5,0.3,8.3,0.4c-1.9,2.5-3.9,5-5.6,7.7
		C454.2,722.1,448.3,718.9,447.2,712.2z"/>
	<path d="M507.8,721.7c4.8,3.6,6.8,9.4,10.1,14.2c-2.2,3.5-6.8,2.1-10.2,2.5C509.2,732.9,509.2,727.2,507.8,721.7z"/>
	<path d="M581.3,726.1c1.5-0.5,3-1,4.5-1.5c-1.9,3.3-3.8,6.7-5.6,10c-4.5-1.8-8.6,0.2-12.4,2.5c-0.2-1.1-0.5-3.2-0.7-4.2
		C572.5,732.4,577.1,729.4,581.3,726.1z"/>
	<path d="M758,833c4.8-1.8,7.3,2.1,10.9,4.2c7.8,8.5-0.3,24.9-12.3,23.3C755.7,851.3,754.3,841.8,758,833z"/>
	<path d="M460.6,861.3c4.1,6.2,12.7,9,13.8,17.2c-5.1,0.4-9.3-2.5-13.8-4.4C460.8,869.9,460.7,865.6,460.6,861.3z"/>
	<path d="M470.5,885.7c7.3-0.2,15.7,4.2,14.4,12.7C479.7,893.9,469.2,895.1,470.5,885.7z"/>
	<g>
		<path d="M646.3,226c-1.5-2.9,2.8-6.1,5.5-5.6C652.4,222.8,648.8,226.6,646.3,226z"/>
	</g>
</g>
</svg>
