<?xml version="1.0" encoding="utf-8"?>
<!-- Generator: Adobe Illustrator 23.1.0, SVG Export Plug-In . SVG Version: 6.00 Build 0)  -->
<svg version="1.1" id="Layer_1" xmlns="http://www.w3.org/2000/svg" xmlns:xlink="http://www.w3.org/1999/xlink" x="0px" y="0px"
	 viewBox="0 0 350 350" style="enable-background:new 0 0 350 350;" xml:space="preserve">
<path d="M343.5,193.9l-17.8-54.6c-0.1-0.5-0.2-1-0.4-1.5L289.6,27.9c-1.9-5.8-7.4-9.7-13.5-9.7c-6.1,0-11.5,3.9-13.4,9.8l-34,104.6
	H121.4L87.3,28c-1.8-5.8-7.2-9.8-13.3-9.8h-0.1c-6.1,0-11.6,3.9-13.5,9.8L24.7,138c0,0.1-0.1,0.2-0.1,0.3L6.5,193.9
	c-2.7,8.4,0.2,17.5,7.4,22.7l156.4,113.6c2.8,2,6.6,2,9.5,0l156.4-113.6C343.2,211.4,346.2,202.2,343.5,193.9 M109.7,148.7
	l43.6,134.2L48.7,148.7 M196.7,282.9l41.8-128.6l1.8-5.6h61.1L206.8,270 M276.2,38.3l30.6,94.3h-61.3 M223.5,148.7l-30.4,93.5
	L175,297.8l-48.4-149.1 M73.9,38.3l30.7,94.3H43.3 M23.3,203.6c-1.5-1.1-2.1-3.1-1.6-4.8l13.4-41.3l98.6,126.4 M326.7,203.6
	l-110.5,80.2l0.4-0.5l98.2-125.9l13.4,41.3C328.9,200.6,328.2,202.5,326.7,203.6"/>
</svg>
