<?xml version="1.0" encoding="utf-8"?>
<!-- Generator: Adobe Illustrator 23.1.0, SVG Export Plug-In . SVG Version: 6.00 Build 0)  -->
<svg version="1.1" id="logo_art" xmlns="http://www.w3.org/2000/svg" xmlns:xlink="http://www.w3.org/1999/xlink" x="0px" y="0px"
	 viewBox="0 0 350 350" style="enable-background:new 0 0 350 350;" xml:space="preserve">
<style type="text/css">
	.st0{fill:#FC6D26;}
	.st1{fill:#E24329;}
	.st2{fill:#FCA326;}
</style>
<title>gitlab-icon-rgb</title>
<g id="g44">
	<path id="path46" class="st0" d="M343.2,197.3l-18.9-58.1L286.8,23.9c-1.1-3.4-4.8-5.2-8.2-4.1c-1.9,0.6-3.4,2.2-4.1,4.1
		l-37.4,115.2H112.8L75.4,23.9c-1.1-3.4-4.8-5.2-8.2-4.1c-1.9,0.6-3.4,2.2-4.1,4.1L25.8,139.1L6.9,197.3c-1.7,5.3,0.2,11.1,4.7,14.4
		L175,330.5l163.4-118.8C343,208.5,344.9,202.6,343.2,197.3"/>
</g>
<g id="g48">
	<path id="path50" class="st1" d="M175,330.4L175,330.4l62.2-191.3H112.9L175,330.4z"/>
</g>
<g id="g56">
	<path id="path58" class="st0" d="M175,330.4l-62.2-191.3h-87L175,330.4z"/>
</g>
<g id="g64">
	<path id="path66" class="st2" d="M25.8,139.2L25.8,139.2L6.8,197.3c-1.7,5.3,0.2,11.1,4.7,14.4L175,330.5L25.8,139.2z"/>
</g>
<g id="g72">
	<path id="path74" class="st1" d="M25.8,139.2h87.1L75.4,24c-1.1-3.4-4.8-5.2-8.2-4.1c-1.9,0.6-3.4,2.2-4.1,4.1L25.8,139.2z"/>
</g>
<g id="g76">
	<path id="path78" class="st0" d="M175,330.4l62.2-191.3h87.1L175,330.4z"/>
</g>
<g id="g80">
	<path id="path82" class="st2" d="M324.2,139.2L324.2,139.2l18.9,58.1c1.7,5.3-0.1,11.1-4.7,14.4L175,330.4L324.2,139.2L324.2,139.2
		z"/>
</g>
<g id="g84">
	<path id="path86" class="st1" d="M324.3,139.2h-87.1L274.6,24c1.1-3.4,4.8-5.2,8.2-4.1c1.9,0.6,3.4,2.2,4.1,4.1L324.3,139.2
		L324.3,139.2z"/>
</g>
</svg>
