<?xml version="1.0" encoding="utf-8"?>
<!-- Generator: Adobe Illustrator 23.1.0, SVG Export Plug-In . SVG Version: 6.00 Build 0)  -->
<svg version="1.1" id="Logo" xmlns="http://www.w3.org/2000/svg" xmlns:xlink="http://www.w3.org/1999/xlink" x="0px" y="0px"
	 viewBox="0 0 512 512" style="enable-background:new 0 0 512 512;" xml:space="preserve">
<g>
	<path d="M256,51.05c66.75,0,74.66,0.25,101.02,1.46c24.37,1.11,37.61,5.18,46.42,8.61c11.67,4.53,20,9.95,28.75,18.7
		c8.75,8.75,14.17,17.08,18.7,28.75c3.42,8.81,7.5,22.05,8.61,46.42c1.2,26.36,1.46,34.27,1.46,101.02s-0.25,74.66-1.46,101.02
		c-1.11,24.37-5.18,37.61-8.61,46.42c-4.53,11.67-9.95,20-18.7,28.75c-8.75,8.75-17.08,14.17-28.75,18.7
		c-8.81,3.42-22.05,7.5-46.42,8.61c-26.36,1.2-34.26,1.46-101.02,1.46s-74.66-0.25-101.02-1.46c-24.37-1.11-37.61-5.18-46.42-8.61
		c-11.67-4.53-20-9.95-28.75-18.7c-8.75-8.75-14.17-17.08-18.7-28.75c-3.42-8.81-7.5-22.05-8.61-46.42
		c-1.2-26.36-1.46-34.27-1.46-101.02s0.25-74.66,1.46-101.02c1.11-24.37,5.18-37.61,8.61-46.42c4.53-11.67,9.95-20,18.7-28.75
		c8.75-8.75,17.08-14.17,28.75-18.7c8.81-3.42,22.05-7.5,46.42-8.61C181.34,51.3,189.25,51.05,256,51.05 M256,6
		c-67.9,0-76.41,0.29-103.07,1.5c-26.61,1.21-44.78,5.44-60.69,11.62C75.8,25.51,61.86,34.06,47.96,47.96
		c-13.9,13.9-22.45,27.84-28.84,44.28c-6.18,15.9-10.41,34.08-11.62,60.69C6.29,179.59,6,188.1,6,256c0,67.9,0.29,76.41,1.5,103.07
		c1.21,26.61,5.44,44.78,11.62,60.69c6.39,16.44,14.94,30.38,28.84,44.28c13.9,13.9,27.84,22.45,44.28,28.84
		c15.9,6.18,34.08,10.41,60.69,11.62c26.67,1.22,35.18,1.5,103.07,1.5s76.41-0.29,103.07-1.5c26.61-1.21,44.78-5.44,60.69-11.62
		c16.44-6.39,30.38-14.94,44.28-28.84c13.9-13.9,22.45-27.84,28.84-44.28c6.18-15.9,10.41-34.08,11.62-60.69
		c1.22-26.67,1.5-35.18,1.5-103.07s-0.29-76.41-1.5-103.07c-1.21-26.61-5.44-44.78-11.62-60.69c-6.39-16.44-14.94-30.38-28.84-44.28
		c-13.9-13.9-27.84-22.45-44.28-28.84c-15.9-6.18-34.08-10.41-60.69-11.62C332.41,6.29,323.9,6,256,6L256,6z"/>
	<path d="M256,127.62c-70.9,0-128.38,57.48-128.38,128.38S185.1,384.38,256,384.38S384.38,326.9,384.38,256S326.9,127.62,256,127.62
		z M256,339.33c-46.02,0-83.33-37.31-83.33-83.33s37.31-83.33,83.33-83.33s83.33,37.31,83.33,83.33S302.02,339.33,256,339.33z"/>
	<circle cx="389.45" cy="122.55" r="30"/>
</g>
</svg>
