<?xml version="1.0" encoding="utf-8"?>
<!-- Generator: Adobe Illustrator 22.0.1, SVG Export Plug-In . SVG Version: 6.00 Build 0)  -->
<svg version="1.1" id="Layer_1" xmlns="http://www.w3.org/2000/svg" xmlns:xlink="http://www.w3.org/1999/xlink" x="0px" y="0px"
	 viewBox="0 0 1000 400" style="enable-background:new 0 0 1000 400;" xml:space="preserve">
<g>
	<path d="M811.5,256.9c-14.7,0-27.6-2.1-38.5-6.1c-10.9-4.1-20.1-9.8-27.4-16.9c-7.3-7.1-12.8-15.6-16.4-25.3
		c-3.5-9.7-5.3-20.2-5.3-31.4v-59.5h-27.6v132.9c0,0.6-0.4,1-1,1h-62.9c-0.6,0-1-0.4-1-1V117.7h-30v132.9c0,0.6-0.4,1-1,1h-61.3
		c-0.3,0-0.5-0.1-0.7-0.3c-0.2-0.2-0.3-0.5-0.3-0.7l1.8-103.9l-34.5,104.2c-0.1,0.4-0.5,0.7-0.9,0.7h-44.4c-0.4,0-0.8-0.3-1-0.7
		l-33.6-103.5l2.8,103.2c0,0.3-0.1,0.5-0.3,0.7s-0.4,0.3-0.7,0.3h-58.6c-0.6,0-1-0.4-1-1V127l-34.5,123.9c-0.1,0.4-0.5,0.7-1,0.7
		H269c-0.5,0-0.9-0.3-1-0.8l-26-103.9l-26.8,103.9c-0.1,0.4-0.5,0.8-1,0.8H151c-0.5,0-0.8-0.3-1-0.7l-51-187c-0.1-0.3,0-0.6,0.2-0.9
		c0.2-0.2,0.5-0.4,0.8-0.4h66.6c0.5,0,0.9,0.3,1,0.8l19.6,102.8l21.2-102.8c0.1-0.5,0.5-0.8,1-0.8h65.8c0.5,0,0.9,0.3,1,0.8l23,103
		L319,63.4c0.1-0.5,0.5-0.8,1-0.8h131.1c0.4,0,0.8,0.3,0.9,0.7l33.5,99.7l29.1-99.7c0.1-0.4,0.5-0.7,1-0.7h272.1c0.6,0,1,0.4,1,1
		v106.7c0,8.7,2.1,15.5,6.2,20.3c4.1,4.8,10,7.2,17.6,7.2c7.6,0,13.5-2.4,17.6-7.2c4.1-4.8,6.2-11.7,6.2-20.3V63.6c0-0.6,0.4-1,1-1
		H900c0.6,0,1,0.4,1,1v113.6c0,11.2-1.9,21.7-5.7,31.4c-3.8,9.7-9.6,18.2-17,25.3c-7.5,7.1-16.9,12.8-27.9,16.9
		C839.2,254.8,826.2,256.9,811.5,256.9z"/>
	<path d="M900,63.6v113.6c0,11.1-1.9,21.4-5.7,31c-3.8,9.6-9.4,17.9-16.8,25c-7.4,7-16.6,12.6-27.6,16.6c-11,4-23.8,6.1-38.4,6.1
		c-14.6,0-27.3-2-38.2-6.1c-10.8-4-19.9-9.6-27.1-16.6c-7.2-7-12.6-15.4-16.1-25c-3.5-9.6-5.3-19.9-5.3-31v-60.5h-29.6v133.9h-62.9
		V116.7h-32v133.9h-61.3l1.8-105.1l-1.6-0.3l-34.9,105.4h-44.4L425.9,145h-1.3l2.9,105.6h-58.6v-131l-36.4,131H269L242.6,145h-1.1
		l-27.2,105.6H151l-51-187h66.6l20.1,105.1h1.1l21.7-105.1h65.8l23.5,105.1h1.1L320,63.6h131.1l33.8,100.6h1.3l29.4-100.6h272.1
		v106.7c0,9,2.2,16,6.5,21c4.3,5,10.4,7.5,18.4,7.5c7.9,0,14-2.5,18.4-7.5c4.3-5,6.5-12,6.5-21V63.6H900 M900,61.6h-62.6
		c-1.1,0-2,0.9-2,2v106.7c0,8.4-2,15.1-6,19.7c-4,4.6-9.5,6.8-16.8,6.8c-7.4,0-12.9-2.2-16.8-6.8c-4-4.6-6-11.2-6-19.7V63.6
		c0-1.1-0.9-2-2-2H515.6c-0.9,0-1.7,0.6-1.9,1.4l-28.2,96.6L453,63c-0.3-0.8-1-1.4-1.9-1.4H320c-1,0-1.8,0.7-2,1.6l-19,98.2
		l-22-98.3c-0.2-0.9-1-1.6-2-1.6h-65.8c-0.9,0-1.8,0.7-2,1.6l-20.2,97.9l-18.7-97.9c-0.2-0.9-1-1.6-2-1.6H100
		c-0.6,0-1.2,0.3-1.6,0.8c-0.4,0.5-0.5,1.1-0.3,1.7l51,187c0.2,0.9,1,1.5,1.9,1.5h63.4c0.9,0,1.7-0.6,1.9-1.5L242.1,151l25,100.1
		c0.2,0.9,1,1.5,1.9,1.5h63.4c0.9,0,1.7-0.6,1.9-1.5l32.5-116.9v116.3c0,1.1,0.9,2,2,2h58.6c0.5,0,1.1-0.2,1.4-0.6
		c0.4-0.4,0.6-0.9,0.6-1.4l-2.6-96.2l31.5,96.9c0.3,0.8,1,1.4,1.9,1.4h44.4c0.9,0,1.6-0.6,1.9-1.4l32.4-98l-1.7,97.3
		c0,0.5,0.2,1.1,0.6,1.4c0.4,0.4,0.9,0.6,1.4,0.6h61.3c1.1,0,2-0.9,2-2V118.7h28v131.9c0,1.1,0.9,2,2,2h62.9c1.1,0,2-0.9,2-2V118.7
		h25.6v58.5c0,11.3,1.8,22,5.4,31.7c3.6,9.8,9.2,18.5,16.6,25.7c7.4,7.2,16.7,13,27.8,17.1c11,4.1,24.1,6.2,38.9,6.2
		c14.8,0,27.9-2.1,39.1-6.2c11.2-4.1,20.7-9.9,28.3-17.1c7.6-7.2,13.4-15.8,17.3-25.7c3.9-9.8,5.8-20.5,5.8-31.8V63.6
		C902,62.5,901.1,61.6,900,61.6L900,61.6z"/>
</g>
<g>
	<g>
		<path d="M581.7,336.3c-0.2,0-0.4-0.1-0.4-0.3c-0.1-0.2-0.1-0.4,0-0.5l17.4-25.2c-0.7,0.2-1.6,0.4-2.5,0.5c-1.5,0.2-2.8,0.3-4,0.3
			c-3.2,0-6.2-0.6-9-1.8c-2.8-1.2-5.3-2.8-7.4-4.9c-2.1-2.1-3.8-4.5-5-7.4c-1.2-2.8-1.8-5.9-1.8-9.1c0-3.8,0.7-7.3,2-10.4
			c1.4-3.1,3.2-5.8,5.6-8c2.3-2.2,5.2-3.9,8.4-5.1c3.2-1.2,6.7-1.8,10.3-1.8c3.7,0,7.2,0.6,10.4,1.9c3.2,1.3,6,3,8.4,5.3
			c2.4,2.2,4.2,4.9,5.6,7.9c1.3,3,2,6.3,2,9.8c0,2-0.2,4-0.5,5.7c-0.3,1.8-0.8,3.5-1.5,5.2c-0.6,1.7-1.4,3.3-2.3,5
			c-0.9,1.7-1.9,3.4-3.1,5.2L596.7,336c-0.1,0.1-0.2,0.2-0.4,0.2H581.7z M595.5,273.7c-3.9,0-7.1,1.3-9.5,3.8
			c-2.4,2.5-3.6,5.9-3.6,9.9c0,1.9,0.3,3.7,0.9,5.4c0.6,1.6,1.5,3,2.6,4.2c1.1,1.1,2.5,2.1,4.1,2.7c1.6,0.7,3.3,1,5.3,1
			c1.9,0,3.7-0.3,5.4-1c1.6-0.6,3-1.6,4.2-2.7c1.2-1.2,2.1-2.6,2.7-4.3c0.6-1.7,1-3.5,1-5.5c0-1.8-0.3-3.5-0.9-5.1
			c-0.6-1.6-1.5-3-2.6-4.3c-1.1-1.2-2.5-2.2-4.1-3C599.3,274,597.5,273.7,595.5,273.7z"/>
		<path d="M595.4,263.2c3.7,0,7.1,0.6,10.2,1.9c3.2,1.2,5.9,2.9,8.2,5.1c2.3,2.2,4.1,4.8,5.5,7.8c1.3,3,1.9,6.1,1.9,9.5
			c0,2-0.2,3.9-0.5,5.7c-0.3,1.8-0.8,3.5-1.4,5.1c-0.6,1.6-1.4,3.3-2.3,5c-0.9,1.7-1.9,3.4-3,5.2l-17.7,27.4h-14.6l18.2-26.3
			l-0.1-0.1c-1,0.5-2.2,0.8-3.6,1c-1.4,0.2-2.8,0.3-4,0.3c-3.1,0-6.1-0.6-8.8-1.8c-2.7-1.2-5.1-2.8-7.2-4.8c-2.1-2-3.7-4.4-4.8-7.2
			c-1.2-2.8-1.8-5.8-1.8-9c0-3.7,0.7-7.1,2-10.2c1.3-3.1,3.2-5.7,5.4-7.9c2.3-2.2,5-3.8,8.2-5C588.4,263.8,591.8,263.2,595.4,263.2
			 M595.3,301.2c2,0,3.9-0.3,5.6-1c1.7-0.7,3.2-1.6,4.4-2.9c1.2-1.2,2.2-2.7,2.8-4.4c0.7-1.7,1-3.6,1-5.7c0-1.9-0.3-3.6-1-5.3
			c-0.6-1.7-1.5-3.2-2.8-4.5s-2.6-2.3-4.3-3.1c-1.7-0.8-3.5-1.1-5.6-1.1c-4.1,0-7.4,1.3-9.9,4c-2.5,2.6-3.8,6-3.8,10.2
			c0,2,0.3,3.8,1,5.5c0.6,1.7,1.5,3.1,2.8,4.4c1.2,1.2,2.6,2.1,4.2,2.8C591.5,300.8,593.3,301.2,595.3,301.2 M595.4,262.2
			c-3.7,0-7.2,0.6-10.5,1.8c-3.3,1.2-6.1,3-8.5,5.2c-2.4,2.3-4.3,5-5.7,8.2c-1.4,3.2-2.1,6.7-2.1,10.6c0,3.3,0.6,6.5,1.8,9.3
			c1.2,2.9,2.9,5.4,5.1,7.5c2.1,2.1,4.7,3.8,7.5,5c2.8,1.2,5.9,1.8,9.2,1.8c1.2,0,2.6-0.1,4.1-0.3c0.4-0.1,0.8-0.1,1.2-0.2
			l-16.6,24.1c-0.2,0.3-0.2,0.7-0.1,1c0.2,0.3,0.5,0.5,0.9,0.5h14.6c0.3,0,0.7-0.2,0.8-0.5l17.7-27.4c1.2-1.8,2.2-3.6,3.1-5.3
			c0.9-1.7,1.7-3.4,2.4-5.1c0.7-1.7,1.2-3.5,1.5-5.3c0.3-1.8,0.5-3.8,0.5-5.8c0-3.5-0.7-6.9-2-10c-1.3-3.1-3.3-5.8-5.7-8.1
			c-2.4-2.3-5.3-4.1-8.6-5.4C602.7,262.8,599.2,262.2,595.4,262.2L595.4,262.2z M595.3,300.2c-1.9,0-3.6-0.3-5.1-1
			c-1.5-0.6-2.8-1.5-3.9-2.6c-1.1-1.1-1.9-2.4-2.5-4c-0.6-1.6-0.9-3.3-0.9-5.2c0-4,1.1-7.1,3.5-9.6c2.3-2.4,5.3-3.6,9.1-3.6
			c1.9,0,3.7,0.4,5.2,1.1c1.5,0.7,2.9,1.7,4,2.9c1.1,1.2,2,2.6,2.6,4.1c0.6,1.5,0.9,3.2,0.9,4.9c0,1.9-0.3,3.7-0.9,5.3
			c-0.6,1.6-1.5,3-2.6,4.1c-1.1,1.1-2.5,2-4.1,2.6C598.9,299.9,597.2,300.2,595.3,300.2L595.3,300.2z"/>
	</g>
	<g>
		<path d="M646.3,336.3c-0.3,0-0.5-0.2-0.5-0.5v-55.1l-13.2,10.8c-0.1,0.1-0.2,0.1-0.3,0.1c-0.1,0-0.3-0.1-0.4-0.2l-7-8.3
			c-0.1-0.1-0.1-0.2-0.1-0.4c0-0.1,0.1-0.3,0.2-0.3l22.1-17.8c0.1-0.1,0.2-0.1,0.3-0.1h10.9c0.3,0,0.5,0.2,0.5,0.5v70.8
			c0,0.3-0.2,0.5-0.5,0.5H646.3z"/>
		<path d="M658.3,265v70.8h-12v-56.2l-14,11.5l-7-8.3l22.1-17.8H658.3 M658.3,264h-10.9c-0.2,0-0.4,0.1-0.6,0.2L624.7,282
			c-0.2,0.2-0.3,0.4-0.4,0.7c0,0.3,0.1,0.5,0.2,0.7l7,8.3c0.2,0.2,0.5,0.4,0.8,0.4c0.2,0,0.4-0.1,0.6-0.2l12.4-10.2v54.1
			c0,0.6,0.4,1,1,1h12c0.6,0,1-0.4,1-1V265C659.3,264.4,658.9,264,658.3,264L658.3,264z"/>
	</g>
	<g>
		<path d="M684.9,336.9c-1.1,0-2.2-0.2-3.2-0.6c-1-0.4-1.9-1-2.7-1.7c-0.8-0.7-1.4-1.6-1.9-2.6c-0.5-1-0.7-2.1-0.7-3.2
			c0-2.3,0.8-4.2,2.5-5.9c1.7-1.6,3.7-2.4,6-2.4c2.3,0,4.2,0.8,5.9,2.3c1.7,1.6,2.6,3.5,2.6,5.8c0,2.3-0.8,4.2-2.5,5.9
			C689.2,336,687.2,336.9,684.9,336.9z"/>
		<path d="M684.9,321c2.1,0,4,0.7,5.6,2.2c1.6,1.5,2.4,3.3,2.4,5.4c0,2.1-0.8,4-2.3,5.5c-1.6,1.5-3.5,2.3-5.7,2.3
			c-1.1,0-2.1-0.2-3-0.6c-1-0.4-1.8-0.9-2.5-1.6c-0.7-0.7-1.3-1.5-1.8-2.4c-0.4-0.9-0.7-1.9-0.7-3c0-2.1,0.8-4,2.3-5.5
			S682.7,321,684.9,321 M684.9,320c-2.5,0-4.6,0.9-6.3,2.6c-1.8,1.7-2.7,3.8-2.7,6.2c0,1.2,0.3,2.4,0.7,3.4c0.5,1.1,1.2,2,2,2.7
			c0.8,0.7,1.8,1.3,2.8,1.8c1.1,0.4,2.2,0.7,3.4,0.7c2.5,0,4.6-0.9,6.4-2.6c1.8-1.7,2.6-3.8,2.6-6.2c0-2.4-0.9-4.5-2.7-6.1
			C689.4,320.8,687.3,320,684.9,320L684.9,320z"/>
	</g>
	<g>
		<path d="M707.2,336.3c-0.2,0-0.4-0.1-0.4-0.3c-0.1-0.2-0.1-0.4,0-0.5l17.4-25.2c-0.7,0.2-1.6,0.4-2.5,0.5c-1.5,0.2-2.8,0.3-4,0.3
			c-3.2,0-6.2-0.6-9-1.8c-2.8-1.2-5.3-2.8-7.4-4.9c-2.1-2.1-3.8-4.5-5-7.4c-1.2-2.8-1.8-5.9-1.8-9.1c0-3.8,0.7-7.3,2-10.4
			c1.4-3.1,3.2-5.8,5.6-8c2.3-2.2,5.2-3.9,8.4-5.1c3.2-1.2,6.7-1.8,10.3-1.8c3.7,0,7.2,0.6,10.4,1.9c3.2,1.3,6,3,8.4,5.3
			c2.4,2.2,4.2,4.9,5.6,7.9c1.3,3,2,6.3,2,9.8c0,2-0.2,3.9-0.5,5.7c-0.3,1.8-0.8,3.5-1.5,5.2c-0.6,1.7-1.4,3.3-2.3,5
			c-0.9,1.7-1.9,3.4-3.1,5.2L722.2,336c-0.1,0.1-0.2,0.2-0.4,0.2H707.2z M721,273.7c-3.9,0-7.1,1.3-9.5,3.8
			c-2.4,2.5-3.6,5.9-3.6,9.9c0,1.9,0.3,3.7,0.9,5.4c0.6,1.6,1.5,3,2.6,4.2c1.2,1.2,2.5,2.1,4.1,2.7c1.6,0.7,3.3,1,5.3,1
			c1.9,0,3.7-0.3,5.4-1c1.6-0.6,3-1.6,4.2-2.7c1.2-1.2,2.1-2.6,2.7-4.3c0.6-1.7,1-3.5,1-5.5c0-1.8-0.3-3.5-0.9-5.1
			c-0.6-1.6-1.5-3-2.6-4.3c-1.1-1.2-2.5-2.2-4.1-3C724.8,274,723,273.7,721,273.7z"/>
		<path d="M720.9,263.2c3.7,0,7.1,0.6,10.2,1.9c3.2,1.2,5.9,2.9,8.2,5.1c2.3,2.2,4.2,4.8,5.5,7.8c1.3,3,2,6.1,2,9.5
			c0,2-0.2,3.9-0.5,5.7c-0.3,1.8-0.8,3.5-1.5,5.1c-0.6,1.6-1.4,3.3-2.3,5c-0.9,1.7-1.9,3.4-3.1,5.2l-17.7,27.4h-14.6l18.2-26.3
			l-0.1-0.1c-1,0.5-2.2,0.8-3.7,1c-1.4,0.2-2.8,0.3-4,0.3c-3.1,0-6.1-0.6-8.8-1.8c-2.7-1.2-5.1-2.8-7.2-4.8c-2.1-2-3.7-4.4-4.8-7.2
			c-1.2-2.8-1.8-5.8-1.8-9c0-3.7,0.7-7.1,2-10.2c1.3-3.1,3.1-5.7,5.5-7.9c2.3-2.2,5-3.8,8.2-5C713.9,263.8,717.3,263.2,720.9,263.2
			 M720.8,301.2c2,0,3.8-0.3,5.5-1c1.7-0.7,3.2-1.6,4.4-2.9c1.2-1.2,2.2-2.7,2.9-4.4c0.7-1.7,1-3.6,1-5.7c0-1.9-0.3-3.6-1-5.3
			c-0.6-1.7-1.5-3.2-2.8-4.5s-2.6-2.3-4.3-3.1c-1.7-0.8-3.5-1.1-5.6-1.1c-4.1,0-7.3,1.3-9.8,4c-2.5,2.6-3.8,6-3.8,10.2
			c0,2,0.3,3.8,1,5.5c0.6,1.7,1.5,3.1,2.8,4.4c1.2,1.2,2.6,2.1,4.2,2.8C717,300.8,718.8,301.2,720.8,301.2 M720.9,262.2
			c-3.7,0-7.2,0.6-10.5,1.8c-3.3,1.2-6.1,3-8.5,5.2c-2.4,2.2-4.3,5-5.7,8.2c-1.4,3.2-2.1,6.7-2.1,10.6c0,3.3,0.6,6.5,1.8,9.3
			c1.2,2.9,2.9,5.4,5.1,7.5c2.1,2.1,4.7,3.8,7.5,5c2.8,1.2,5.9,1.8,9.2,1.8c1.2,0,2.6-0.1,4.1-0.3c0.4-0.1,0.8-0.1,1.2-0.2
			l-16.6,24.1c-0.2,0.3-0.2,0.7-0.1,1c0.2,0.3,0.5,0.5,0.9,0.5h14.6c0.3,0,0.7-0.2,0.8-0.5l17.7-27.4c1.2-1.8,2.2-3.6,3.1-5.3
			c0.9-1.7,1.7-3.4,2.4-5.1c0.7-1.7,1.2-3.5,1.5-5.3c0.3-1.8,0.5-3.8,0.5-5.8c0-3.5-0.7-6.9-2-10c-1.3-3.1-3.3-5.8-5.7-8.1
			c-2.4-2.3-5.3-4.1-8.6-5.4C728.2,262.8,724.7,262.2,720.9,262.2L720.9,262.2z M720.8,300.2c-1.9,0-3.6-0.3-5.1-1
			c-1.5-0.6-2.8-1.5-3.9-2.6c-1.1-1.1-1.9-2.4-2.5-4c-0.6-1.6-0.9-3.3-0.9-5.2c0-4,1.1-7.1,3.5-9.6c2.3-2.4,5.3-3.6,9.1-3.6
			c1.9,0,3.7,0.4,5.2,1.1c1.5,0.7,2.9,1.7,4,2.9c1.1,1.2,2,2.6,2.6,4.1c0.6,1.5,0.9,3.2,0.9,4.9c0,1.9-0.3,3.7-0.9,5.3
			c-0.6,1.6-1.5,3-2.6,4.1c-1.1,1.1-2.5,2-4.1,2.6C724.4,299.9,722.7,300.2,720.8,300.2L720.8,300.2z"/>
	</g>
	<g>
		<path d="M771.7,336.3c-0.3,0-0.5-0.2-0.5-0.5V265c0-0.3,0.2-0.5,0.5-0.5h45.7c0.3,0,0.5,0.2,0.5,0.5v11c0,0.3-0.2,0.5-0.5,0.5
			h-32.6v18.4h30.7c0.3,0,0.5,0.2,0.5,0.5V306c0,0.3-0.2,0.5-0.5,0.5h-30.7v29.3c0,0.3-0.2,0.5-0.5,0.5H771.7z"/>
		<path d="M817.4,265v11h-33.1v19.4h31.2V306h-31.2v29.8h-12.6V265H817.4 M817.4,264h-45.7c-0.6,0-1,0.4-1,1v70.8c0,0.6,0.4,1,1,1
			h12.6c0.6,0,1-0.4,1-1V307h30.2c0.6,0,1-0.4,1-1v-10.6c0-0.6-0.4-1-1-1h-30.2V277h32.1c0.6,0,1-0.4,1-1v-11
			C818.4,264.4,817.9,264,817.4,264L817.4,264z"/>
	</g>
	<g>
		<path d="M887.9,336.3c-0.3,0-0.5-0.2-0.5-0.5v-54.7l-20.7,54.9c-0.1,0.2-0.3,0.3-0.5,0.3h-8.8c-0.2,0-0.4-0.1-0.5-0.3l-20.4-54.8
			v54.7c0,0.3-0.2,0.5-0.5,0.5h-12c-0.3,0-0.5-0.2-0.5-0.5V265c0-0.3,0.2-0.5,0.5-0.5h19.7c0.2,0,0.4,0.1,0.5,0.3l18.1,49.4
			l17.9-49.4c0.1-0.2,0.3-0.3,0.5-0.3h19.8c0.3,0,0.5,0.2,0.5,0.5v70.8c0,0.3-0.2,0.5-0.5,0.5H887.9z"/>
		<path d="M900.4,265v70.8h-12.5v-56.9h-0.2l-21.5,56.9h-8.8l-21.2-56.9H836v56.9h-12V265h19.7l18.4,50.3h0.3l18.2-50.3H900.4
			 M900.4,264h-19.8c-0.4,0-0.8,0.3-0.9,0.7l-17.4,48.1l-17.6-48.1c-0.1-0.4-0.5-0.7-0.9-0.7H824c-0.6,0-1,0.4-1,1v70.8
			c0,0.6,0.4,1,1,1h12c0.6,0,1-0.4,1-1v-51.9l19.5,52.2c0.1,0.4,0.5,0.7,0.9,0.7h8.8c0.4,0,0.8-0.3,0.9-0.6l19.8-52.3v52
			c0,0.6,0.4,1,1,1h12.5c0.6,0,1-0.4,1-1V265C901.4,264.4,900.9,264,900.4,264L900.4,264z"/>
	</g>
</g>
</svg>
